# Blender 4.5.3 LTS
# www.blender.org
mtllib LowPolyBrain.mtl
o Brain
v 0.066505 0.009515 -0.019557
v 0.067424 -0.008666 -0.020418
v 0.068033 0.005273 -0.007627
v 0.067642 -0.011705 -0.007784
v 0.055459 0.006962 -0.021504
v 0.057864 -0.008901 -0.023080
v 0.062098 0.004490 -0.004339
v 0.062098 -0.011143 -0.004195
v 0.062057 -0.027706 -0.015505
v 0.062219 -0.029239 -0.003759
v 0.055793 -0.027709 -0.017165
v 0.057755 -0.031854 -0.000014
v 0.057314 -0.041476 -0.015800
v 0.057636 -0.044503 -0.001635
v 0.051398 -0.040722 -0.018572
v 0.051579 -0.043173 0.002297
v 0.053854 -0.049595 -0.010763
v 0.053006 -0.048820 0.001622
v 0.048828 -0.051353 -0.012338
v 0.051558 -0.056903 -0.004570
v 0.051924 -0.060229 -0.017725
v 0.064413 0.005900 -0.030931
v 0.064413 -0.007596 -0.030435
v 0.061131 -0.030192 -0.025459
v 0.056244 -0.041374 -0.026161
v 0.050338 -0.054093 -0.017427
v 0.063075 0.004925 0.000881
v 0.064599 -0.009839 0.002112
v 0.059034 -0.031264 0.006566
v 0.054433 -0.044156 0.007841
v 0.057748 0.005578 0.015343
v 0.057002 -0.013967 0.015944
v 0.048695 -0.029263 0.018783
v 0.042775 -0.041749 0.019926
v 0.033768 -0.056078 0.016876
v 0.047878 -0.055817 0.007034
v 0.039495 -0.062937 0.000803
v 0.045070 -0.058531 -0.006791
v 0.026848 -0.059718 0.012338
v 0.031621 -0.062232 -0.000993
v 0.002317 -0.081482 -0.029626
v 0.002317 -0.086592 -0.020988
v 0.002317 -0.053179 -0.021332
v 0.003889 -0.078806 -0.013514
v 0.007691 -0.089621 -0.015109
v 0.009636 -0.086939 -0.005829
v 0.008937 -0.090129 -0.028377
v 0.008937 -0.093827 -0.021029
v 0.019179 -0.087393 -0.014528
v 0.017961 -0.090470 -0.028377
v 0.020777 -0.093007 -0.022207
v 0.029048 -0.088624 -0.021096
v 0.033561 -0.090013 -0.026781
v 0.037066 -0.082507 -0.019818
v 0.023006 -0.086729 -0.032880
v 0.035221 -0.079987 -0.028228
v 0.030644 -0.089896 -0.018863
v 0.034149 -0.078286 -0.012838
v 0.019304 -0.087370 -0.012126
v 0.018672 -0.081330 -0.009838
v 0.044495 -0.075379 -0.030431
v 0.044161 -0.081142 -0.021062
v 0.041244 -0.072097 -0.014082
v 0.038488 -0.068263 -0.010372
v 0.023010 -0.069002 -0.010508
v 0.007694 -0.081145 0.000260
v 0.017017 -0.059208 -0.002947
v 0.003181 -0.085818 -0.009671
v 0.013172 -0.047277 0.004002
v 0.045438 -0.070449 -0.010821
v 0.050446 -0.067413 -0.030657
v 0.017450 -0.057365 0.009335
v 0.001980 -0.078765 0.001043
v 0.003523 -0.046618 0.004690
v 0.002824 -0.068394 -0.010942
v 0.004025 -0.044641 -0.003179
v 0.061950 0.007188 -0.039185
v 0.060852 -0.002455 -0.041904
v 0.056123 -0.031920 -0.037712
v 0.052668 -0.044007 -0.038835
v 0.059287 -0.018555 -0.039944
v 0.047781 -0.001511 -0.056376
v 0.043344 -0.013573 -0.057390
v 0.044726 -0.033358 -0.051420
v 0.046291 -0.023672 -0.054467
v 0.042017 -0.014943 -0.055929
v 0.034633 0.003699 -0.066495
v 0.030196 -0.008363 -0.068687
v 0.024872 -0.025858 -0.073201
v 0.029289 -0.014152 -0.070763
v 0.027689 -0.011078 -0.065370
v 0.045154 -0.035605 -0.044238
v 0.047503 -0.046379 -0.046762
v 0.034799 -0.027881 -0.064716
v 0.046479 -0.038066 -0.050044
v 0.029707 -0.031044 -0.069341
v 0.043029 -0.062178 -0.047253
v 0.034010 -0.050004 -0.061842
v 0.043024 -0.049003 -0.049877
v 0.044654 -0.054756 -0.042373
v 0.043228 -0.046817 -0.045542
v 0.043942 -0.074987 -0.035348
v 0.048562 -0.062437 -0.039492
v 0.045553 -0.056363 -0.034141
v 0.052262 -0.054851 -0.032247
v 0.048399 -0.065218 -0.034921
v 0.038286 -0.071374 -0.048563
v 0.043732 -0.073026 -0.038937
v 0.002071 -0.083549 -0.040282
v 0.008945 -0.092196 -0.036003
v 0.017975 -0.092483 -0.035816
v 0.023625 -0.086374 -0.038937
v 0.027888 -0.088218 -0.037074
v 0.037382 -0.083755 -0.033656
v 0.031521 -0.072340 -0.046155
v 0.027899 -0.084037 -0.044195
v 0.035750 -0.076982 -0.045431
v 0.024170 -0.080978 -0.043527
v 0.029682 -0.066221 -0.057992
v 0.024587 -0.064402 -0.054034
v 0.028479 -0.028739 -0.063331
v 0.024337 -0.047162 -0.064588
v 0.029236 -0.052353 -0.065227
v 0.023669 -0.069601 -0.060393
v 0.024631 -0.046574 -0.071212
v 0.030979 -0.073991 -0.052091
v 0.023543 -0.081415 -0.050070
v 0.010182 -0.088866 -0.046185
v 0.019212 -0.089153 -0.045997
v 0.009618 -0.078058 -0.061578
v 0.008347 -0.047863 -0.076402
v 0.023242 -0.028917 -0.074556
v 0.022013 -0.026612 -0.068546
v 0.010835 -0.028343 -0.078207
v 0.016532 -0.007269 -0.075255
v 0.012360 -0.016188 -0.078531
v 0.015013 -0.010011 -0.069578
v 0.021946 0.007901 -0.071581
v 0.017509 0.000712 -0.076239
v 0.047550 -0.000589 -0.052906
v 0.034402 0.004620 -0.063025
v 0.023485 0.008728 -0.066507
v 0.008299 0.004124 -0.076815
v 0.005097 0.003561 -0.073991
v 0.010426 0.016689 -0.073194
v 0.009989 0.009606 -0.076079
v 0.017516 0.020845 -0.064688
v 0.002721 -0.074497 -0.056823
v 0.001216 -0.046527 -0.073873
v 0.001967 -0.029147 -0.077844
v 0.002510 -0.013670 -0.077981
v 0.011332 -0.008638 -0.079412
v 0.003115 0.001802 -0.076831
v 0.003340 0.023021 -0.072066
v 0.002903 0.011261 -0.074951
v 0.002276 -0.053876 -0.027784
v 0.034697 0.008618 -0.066456
v 0.005079 0.004380 -0.061624
v 0.002411 -0.043467 -0.039889
v 0.026804 0.011323 -0.069593
v 0.002405 -0.018216 -0.045747
v 0.052537 0.004123 -0.053478
v 0.002013 0.003159 -0.061791
v 0.016495 0.031516 -0.066795
v 0.029932 0.028984 -0.059812
v 0.005304 0.030920 -0.066865
v 0.056543 0.024676 -0.044516
v 0.034800 0.019599 -0.064497
v 0.058166 0.011511 -0.046801
v 0.026094 0.019992 -0.067714
v 0.046755 0.015555 -0.057682
v 0.056158 0.023422 -0.038208
v 0.057760 0.011737 -0.042773
v 0.019936 0.047533 -0.049734
v 0.027580 0.040526 -0.044443
v 0.004734 0.046878 -0.052868
v 0.046322 0.027499 -0.052567
v 0.031235 0.029835 -0.053712
v 0.033066 0.032842 -0.055601
v 0.037666 0.042949 -0.043836
v 0.031258 0.043384 -0.047102
v 0.049695 0.027666 -0.045197
v 0.039967 0.043611 -0.039005
v 0.054053 0.030407 -0.043914
v 0.043557 0.043091 -0.039740
v 0.058756 0.029326 -0.036355
v 0.051243 0.048475 -0.020623
v 0.060168 0.022984 -0.037760
v 0.060945 0.015455 -0.041383
v 0.058225 0.024143 -0.030814
v 0.063701 0.015458 -0.034291
v 0.062372 0.024060 -0.026155
v 0.059834 0.032032 -0.027608
v 0.057354 0.038778 -0.006671
v 0.068058 0.013308 -0.009177
v 0.061792 0.014557 -0.003458
v 0.063216 0.017589 0.001072
v 0.065291 0.024242 -0.013889
v 0.061851 0.023943 -0.009773
v 0.063899 0.026408 -0.006179
v 0.060315 0.034541 -0.019511
v 0.046730 0.004603 0.020646
v 0.045011 -0.011138 0.019382
v 0.038891 -0.026107 0.023530
v 0.034175 -0.035081 0.024489
v 0.022270 -0.041418 0.022677
v 0.015797 -0.045824 0.018126
v 0.050937 0.034555 0.018156
v 0.045833 0.033581 0.023459
v 0.057228 0.011350 0.009879
v 0.047728 0.032829 0.012110
v 0.061666 0.009062 0.005526
v 0.061090 0.022069 0.007966
v 0.054561 0.035076 0.008324
v 0.026661 0.053624 -0.036701
v 0.032951 0.061675 -0.013941
v 0.047435 0.049436 -0.002202
v 0.006318 0.057469 -0.038993
v 0.006089 0.052505 -0.029353
v 0.007590 0.061698 -0.029774
v 0.035821 0.057988 -0.003218
v 0.050168 0.040945 -0.010072
v 0.043772 0.044932 0.000025
v 0.035430 0.053517 -0.000353
v 0.045783 0.048702 0.002242
v 0.047059 0.045551 0.011980
v 0.047383 0.047255 0.001923
v 0.034901 0.057009 0.002372
v 0.031128 0.063352 0.009269
v 0.038332 0.042257 0.023696
v 0.020596 0.053491 0.027003
v 0.009122 0.068956 -0.016416
v 0.007534 0.070556 0.006390
v 0.006577 0.057950 0.026712
v 0.002706 0.000750 -0.041806
v 0.019873 0.044650 0.026680
v 0.005854 0.043814 0.026389
v 0.002249 0.005193 -0.062294
v 0.003624 0.015612 -0.032948
v 0.003515 0.042177 -0.023645
v 0.001573 0.057413 -0.009193
v 0.001573 0.060880 0.002022
v 0.001576 0.051689 0.013611
v 0.001574 0.040165 0.016278
v 0.011964 -0.038588 0.012334
v 0.011004 -0.018023 0.011922
v 0.016719 -0.010733 0.019382
v 0.051767 0.005770 0.031286
v 0.038165 0.037938 0.031428
v 0.018931 0.046976 0.029887
v 0.006644 0.045069 0.031290
v 0.008316 -0.015116 0.031282
v 0.026366 -0.007016 0.031286
v 0.051364 0.022331 0.031428
v 0.044960 -0.001970 0.031286
v 0.013636 -0.003825 0.031284
v 0.043119 0.008020 0.042563
v 0.032274 0.033704 0.042563
v 0.020185 0.040500 0.042540
v 0.010170 0.036253 0.042583
v 0.007962 -0.004630 0.042563
v 0.025353 -0.000841 0.042563
v 0.043024 0.018822 0.042563
v 0.038861 0.001248 0.042563
v 0.007502 0.004578 0.042563
v 0.022106 0.022885 0.046068
v 0.006896 0.006412 0.061853
v 0.005707 0.009557 0.061853
v -0.066505 0.009515 -0.019557
v -0.067424 -0.008666 -0.020418
v -0.068033 0.005273 -0.007627
v -0.067642 -0.011705 -0.007784
v -0.055459 0.006962 -0.021504
v -0.057864 -0.008901 -0.023080
v -0.062098 0.004490 -0.004339
v -0.062098 -0.011143 -0.004195
v -0.062057 -0.027706 -0.015505
v -0.062219 -0.029239 -0.003759
v -0.055793 -0.027709 -0.017165
v -0.057755 -0.031854 -0.000014
v -0.057314 -0.041476 -0.015800
v -0.057636 -0.044503 -0.001635
v -0.051398 -0.040722 -0.018572
v -0.051579 -0.043173 0.002297
v -0.053854 -0.049595 -0.010763
v -0.053006 -0.048820 0.001622
v -0.048828 -0.051353 -0.012338
v -0.051558 -0.056903 -0.004570
v -0.051924 -0.060229 -0.017725
v -0.064413 0.005900 -0.030931
v -0.064413 -0.007596 -0.030435
v -0.061131 -0.030192 -0.025459
v -0.056244 -0.041374 -0.026161
v -0.050338 -0.054093 -0.017427
v -0.063075 0.004925 0.000881
v -0.064599 -0.009839 0.002112
v -0.059034 -0.031264 0.006566
v -0.054433 -0.044156 0.007841
v -0.057748 0.005578 0.015343
v -0.057002 -0.013967 0.015944
v -0.048695 -0.029263 0.018783
v -0.042775 -0.041749 0.019926
v -0.033768 -0.056078 0.016876
v -0.047878 -0.055817 0.007034
v -0.039495 -0.062937 0.000803
v -0.045070 -0.058531 -0.006791
v -0.026848 -0.059718 0.012338
v -0.031621 -0.062232 -0.000993
v -0.002317 -0.081482 -0.029626
v -0.002317 -0.086592 -0.020988
v -0.002317 -0.053179 -0.021332
v -0.003889 -0.078806 -0.013514
v -0.007691 -0.089621 -0.015109
v -0.009636 -0.086939 -0.005829
v -0.008937 -0.090129 -0.028377
v -0.008937 -0.093827 -0.021029
v -0.019179 -0.087393 -0.014528
v -0.017961 -0.090470 -0.028377
v -0.020777 -0.093007 -0.022207
v -0.029048 -0.088624 -0.021096
v -0.033561 -0.090013 -0.026781
v -0.037066 -0.082507 -0.019818
v -0.023006 -0.086729 -0.032880
v -0.035221 -0.079987 -0.028228
v -0.030644 -0.089896 -0.018863
v -0.034149 -0.078286 -0.012838
v -0.019304 -0.087370 -0.012126
v -0.018672 -0.081330 -0.009838
v -0.044495 -0.075379 -0.030431
v -0.044161 -0.081142 -0.021062
v -0.041244 -0.072097 -0.014082
v -0.038488 -0.068263 -0.010372
v -0.023010 -0.069002 -0.010508
v -0.007694 -0.081145 0.000260
v -0.017017 -0.059208 -0.002947
v -0.003181 -0.085818 -0.009671
v -0.013172 -0.047277 0.004002
v -0.045438 -0.070449 -0.010821
v -0.050446 -0.067413 -0.030657
v -0.017450 -0.057365 0.009335
v -0.001980 -0.078765 0.001043
v -0.003523 -0.046618 0.004690
v -0.002824 -0.068394 -0.010942
v -0.004025 -0.044641 -0.003179
v -0.061950 0.007188 -0.039185
v -0.060852 -0.002455 -0.041904
v -0.056123 -0.031920 -0.037712
v -0.052668 -0.044007 -0.038835
v -0.059287 -0.018555 -0.039944
v -0.047781 -0.001511 -0.056376
v -0.043344 -0.013573 -0.057390
v -0.044726 -0.033358 -0.051420
v -0.046291 -0.023672 -0.054467
v -0.042017 -0.014943 -0.055929
v -0.034633 0.003699 -0.066495
v -0.030196 -0.008363 -0.068687
v -0.024872 -0.025858 -0.073201
v -0.029289 -0.014152 -0.070763
v -0.027689 -0.011078 -0.065370
v -0.045154 -0.035605 -0.044238
v -0.047503 -0.046379 -0.046762
v -0.034799 -0.027881 -0.064716
v -0.046479 -0.038066 -0.050044
v -0.029707 -0.031044 -0.069341
v -0.043029 -0.062178 -0.047253
v -0.034010 -0.050004 -0.061842
v -0.043024 -0.049003 -0.049877
v -0.044654 -0.054756 -0.042373
v -0.043228 -0.046817 -0.045542
v -0.043942 -0.074987 -0.035348
v -0.048562 -0.062437 -0.039492
v -0.045553 -0.056363 -0.034141
v -0.052262 -0.054851 -0.032247
v -0.048399 -0.065218 -0.034921
v -0.038286 -0.071374 -0.048563
v -0.043732 -0.073026 -0.038937
v -0.002071 -0.083549 -0.040282
v -0.008945 -0.092196 -0.036003
v -0.017975 -0.092483 -0.035816
v -0.023625 -0.086374 -0.038937
v -0.027888 -0.088218 -0.037074
v -0.037382 -0.083755 -0.033656
v -0.031521 -0.072340 -0.046155
v -0.027899 -0.084037 -0.044195
v -0.035750 -0.076982 -0.045431
v -0.024170 -0.080978 -0.043527
v -0.029682 -0.066221 -0.057992
v -0.024587 -0.064402 -0.054034
v -0.028479 -0.028739 -0.063331
v -0.024337 -0.047162 -0.064588
v -0.029236 -0.052353 -0.065227
v -0.023669 -0.069601 -0.060393
v -0.024631 -0.046574 -0.071212
v -0.030979 -0.073991 -0.052091
v -0.023543 -0.081415 -0.050070
v -0.010182 -0.088866 -0.046185
v -0.019212 -0.089153 -0.045997
v -0.009618 -0.078058 -0.061578
v -0.008347 -0.047863 -0.076402
v -0.023242 -0.028917 -0.074556
v -0.022013 -0.026612 -0.068546
v -0.010835 -0.028343 -0.078207
v -0.016532 -0.007269 -0.075255
v -0.012360 -0.016188 -0.078531
v -0.015013 -0.010011 -0.069578
v -0.021946 0.007901 -0.071581
v -0.017509 0.000712 -0.076239
v -0.047550 -0.000589 -0.052906
v -0.034402 0.004620 -0.063025
v -0.023485 0.008728 -0.066507
v -0.008299 0.004124 -0.076815
v -0.005097 0.003561 -0.073991
v -0.010426 0.016689 -0.073194
v -0.009989 0.009606 -0.076079
v -0.017516 0.020845 -0.064688
v -0.002721 -0.074497 -0.056823
v -0.001216 -0.046527 -0.073873
v -0.001967 -0.029147 -0.077844
v -0.002510 -0.013670 -0.077981
v -0.011332 -0.008638 -0.079412
v -0.003115 0.001802 -0.076831
v -0.003340 0.023021 -0.072066
v -0.002903 0.011261 -0.074951
v -0.002276 -0.053876 -0.027784
v -0.034697 0.008618 -0.066456
v -0.005079 0.004380 -0.061624
v -0.002411 -0.043467 -0.039889
v -0.026804 0.011323 -0.069593
v -0.002405 -0.018216 -0.045747
v -0.052537 0.004123 -0.053478
v -0.002013 0.003159 -0.061791
v -0.016495 0.031516 -0.066795
v -0.029932 0.028984 -0.059812
v -0.005304 0.030920 -0.066865
v -0.056543 0.024676 -0.044516
v -0.034800 0.019599 -0.064497
v -0.058166 0.011511 -0.046801
v -0.026094 0.019992 -0.067714
v -0.046755 0.015555 -0.057682
v -0.056158 0.023422 -0.038208
v -0.057760 0.011737 -0.042773
v -0.019936 0.047533 -0.049734
v -0.027580 0.040526 -0.044443
v -0.004734 0.046878 -0.052868
v -0.046322 0.027499 -0.052567
v -0.031235 0.029835 -0.053712
v -0.033066 0.032842 -0.055601
v -0.037666 0.042949 -0.043836
v -0.031258 0.043384 -0.047102
v -0.049695 0.027666 -0.045197
v -0.039967 0.043611 -0.039005
v -0.054053 0.030407 -0.043914
v -0.043557 0.043091 -0.039740
v -0.058756 0.029326 -0.036355
v -0.051243 0.048475 -0.020623
v -0.060168 0.022984 -0.037760
v -0.060945 0.015455 -0.041383
v -0.058225 0.024143 -0.030814
v -0.063701 0.015458 -0.034291
v -0.062372 0.024060 -0.026155
v -0.059834 0.032032 -0.027608
v -0.057354 0.038778 -0.006671
v -0.068058 0.013308 -0.009177
v -0.061792 0.014557 -0.003458
v -0.063216 0.017589 0.001072
v -0.065291 0.024242 -0.013889
v -0.061851 0.023943 -0.009773
v -0.063899 0.026408 -0.006179
v -0.060315 0.034541 -0.019511
v -0.046730 0.004603 0.020646
v -0.045011 -0.011138 0.019382
v -0.038891 -0.026107 0.023530
v -0.034175 -0.035081 0.024489
v -0.022270 -0.041418 0.022677
v -0.015797 -0.045824 0.018126
v -0.050937 0.034555 0.018156
v -0.045833 0.033581 0.023459
v -0.057228 0.011350 0.009879
v -0.047728 0.032829 0.012110
v -0.061666 0.009062 0.005526
v -0.061090 0.022069 0.007966
v -0.054561 0.035076 0.008324
v -0.026661 0.053624 -0.036701
v -0.032951 0.061675 -0.013941
v -0.047435 0.049436 -0.002202
v -0.006318 0.057469 -0.038993
v -0.006089 0.052505 -0.029353
v -0.007590 0.061698 -0.029774
v -0.035821 0.057988 -0.003218
v -0.050168 0.040945 -0.010072
v -0.043772 0.044932 0.000025
v -0.035430 0.053517 -0.000353
v -0.045783 0.048702 0.002242
v -0.047059 0.045551 0.011980
v -0.047383 0.047255 0.001923
v -0.034901 0.057009 0.002372
v -0.031128 0.063352 0.009269
v -0.038332 0.042257 0.023696
v -0.020596 0.053491 0.027003
v -0.009122 0.068956 -0.016416
v -0.007534 0.070556 0.006390
v -0.006577 0.057950 0.026712
v -0.002706 0.000750 -0.041806
v -0.019873 0.044650 0.026680
v -0.005854 0.043814 0.026389
v -0.002249 0.005193 -0.062294
v -0.003624 0.015612 -0.032948
v -0.003515 0.042177 -0.023645
v -0.000000 0.014492 -0.010492
v -0.001573 0.057413 -0.009193
v -0.001573 0.060880 0.002022
v -0.001576 0.051689 0.013611
v -0.001574 0.040165 0.016278
v -0.011964 -0.038588 0.012334
v 0.000000 -0.022148 0.004158
v -0.011004 -0.018023 0.011922
v -0.016719 -0.010733 0.019382
v 0.000000 -0.053179 -0.021332
v 0.000000 -0.044641 -0.003179
v 0.000000 -0.053876 -0.027784
v 0.000000 -0.043467 -0.039889
v -0.000000 -0.018216 -0.045747
v -0.000000 0.000750 -0.041806
v -0.000000 0.015612 -0.032948
v -0.051767 0.005770 0.031286
v -0.038165 0.037938 0.031428
v -0.018931 0.046976 0.029887
v -0.006644 0.045069 0.031290
v 0.000000 -0.016829 0.031278
v -0.008316 -0.015116 0.031282
v -0.026366 -0.007016 0.031286
v -0.051364 0.022331 0.031428
v -0.044960 -0.001970 0.031286
v -0.013636 -0.003825 0.031284
v -0.043119 0.008020 0.042563
v -0.032274 0.033704 0.042563
v -0.020185 0.040500 0.042540
v -0.010170 0.036253 0.042583
v 0.000000 -0.007581 0.042562
v -0.007962 -0.004630 0.042563
v -0.025353 -0.000841 0.042563
v -0.043024 0.018822 0.042563
v -0.038861 0.001248 0.042563
v -0.007502 0.004578 0.042563
v -0.022106 0.022885 0.046068
v -0.000000 0.036561 0.027792
v 0.000000 0.023010 0.039259
v 0.000000 0.001569 0.061853
v -0.006896 0.006412 0.061853
v -0.005707 0.009557 0.061853
v 0.000000 0.008575 0.042563
v 0.000000 0.012082 0.061853
v 0.057864 -0.008901 -0.023080
v 0.062098 0.004490 -0.004339
v 0.062098 -0.011143 -0.004195
v 0.055793 -0.027709 -0.017165
v 0.057755 -0.031854 -0.000014
v 0.051398 -0.040722 -0.018572
v 0.048828 -0.051353 -0.012338
v 0.031621 -0.062232 -0.000993
v 0.045070 -0.058531 -0.006791
v 0.045070 -0.058531 -0.006791
v 0.007691 -0.089621 -0.015109
v 0.008937 -0.090129 -0.028377
v 0.019179 -0.087393 -0.014528
v 0.017961 -0.090470 -0.028377
v 0.023006 -0.086729 -0.032880
v 0.023006 -0.086729 -0.032880
v 0.013172 -0.047277 0.004002
v 0.013172 -0.047277 0.004002
v 0.027689 -0.011078 -0.065370
v 0.045154 -0.035605 -0.044238
v 0.045154 -0.035605 -0.044238
v 0.043228 -0.046817 -0.045542
v 0.043228 -0.046817 -0.045542
v 0.044654 -0.054756 -0.042373
v 0.023625 -0.086374 -0.038937
v 0.031521 -0.072340 -0.046155
v 0.031521 -0.072340 -0.046155
v 0.024170 -0.080978 -0.043527
v 0.024587 -0.064402 -0.054034
v 0.024337 -0.047162 -0.064588
v 0.028479 -0.028739 -0.063331
v 0.022013 -0.026612 -0.068546
v 0.015013 -0.010011 -0.069578
v 0.034402 0.004620 -0.063025
v 0.023485 0.008728 -0.066507
v 0.005097 0.003561 -0.073991
v 0.005079 0.004380 -0.061624
v 0.056158 0.023422 -0.038208
v 0.056158 0.023422 -0.038208
v 0.031235 0.029835 -0.053712
v 0.049695 0.027666 -0.045197
v 0.061792 0.014557 -0.003458
v 0.061851 0.023943 -0.009773
v 0.047728 0.032829 0.012110
v 0.006089 0.052505 -0.029353
v 0.043772 0.044932 0.000025
v 0.043772 0.044932 0.000025
v 0.011004 -0.018023 0.011922
v 0.000000 -0.022148 0.004158
v 0.000000 -0.022148 0.004158
v 0.000000 -0.022148 0.004158
v 0.016719 -0.010733 0.019382
v -0.057864 -0.008901 -0.023080
v -0.062098 0.004490 -0.004339
v -0.062098 -0.011143 -0.004195
v -0.055793 -0.027709 -0.017165
v -0.057755 -0.031854 -0.000014
v -0.051398 -0.040722 -0.018572
v -0.048828 -0.051353 -0.012338
v -0.031621 -0.062232 -0.000993
v -0.045070 -0.058531 -0.006791
v -0.045070 -0.058531 -0.006791
v -0.007691 -0.089621 -0.015109
v -0.008937 -0.090129 -0.028377
v -0.019179 -0.087393 -0.014528
v -0.017961 -0.090470 -0.028377
v -0.023006 -0.086729 -0.032880
v -0.023006 -0.086729 -0.032880
v -0.013172 -0.047277 0.004002
v -0.013172 -0.047277 0.004002
v -0.027689 -0.011078 -0.065370
v -0.045154 -0.035605 -0.044238
v -0.045154 -0.035605 -0.044238
v -0.043228 -0.046817 -0.045542
v -0.043228 -0.046817 -0.045542
v -0.044654 -0.054756 -0.042373
v -0.023625 -0.086374 -0.038937
v -0.031521 -0.072340 -0.046155
v -0.031521 -0.072340 -0.046155
v -0.024170 -0.080978 -0.043527
v -0.024587 -0.064402 -0.054034
v -0.024337 -0.047162 -0.064588
v -0.028479 -0.028739 -0.063331
v -0.022013 -0.026612 -0.068546
v -0.015013 -0.010011 -0.069578
v -0.034402 0.004620 -0.063025
v -0.023485 0.008728 -0.066507
v -0.005097 0.003561 -0.073991
v -0.005079 0.004380 -0.061624
v -0.056158 0.023422 -0.038208
v -0.056158 0.023422 -0.038208
v -0.031235 0.029835 -0.053712
v -0.049695 0.027666 -0.045197
v -0.061792 0.014557 -0.003458
v -0.061851 0.023943 -0.009773
v -0.047728 0.032829 0.012110
v -0.006089 0.052505 -0.029353
v -0.043772 0.044932 0.000025
v -0.043772 0.044932 0.000025
v -0.011004 -0.018023 0.011922
v -0.016719 -0.010733 0.019382
vn -0.9960 0.0009 0.0889
vn -0.9996 -0.0227 0.0147
vn -0.9989 0.0017 0.0465
vn 0.1611 0.0548 -0.9854
vn 0.2234 0.1037 -0.9692
vn 0.1935 0.0802 -0.9778
vn 0.5434 0.0001 0.8395
vn 0.5529 0.0218 0.8330
vn 0.5445 0.0057 0.8387
vn 0.2584 -0.3108 -0.9147
vn 0.2621 -0.3097 -0.9140
vn 0.2534 -0.2135 -0.9435
vn 0.6265 -0.0236 0.7791
vn 0.9919 -0.1031 -0.0747
vn 0.9823 -0.1724 -0.0727
vn 0.9485 -0.3110 -0.0606
vn 0.9489 -0.3092 -0.0630
vn 0.9302 -0.3565 -0.0875
vn 0.2755 -0.1765 -0.9450
vn 0.3782 -0.0499 -0.9244
vn 0.6918 -0.1794 0.6994
vn 0.5615 -0.0233 0.8271
vn 0.3235 -0.5731 -0.7529
vn 0.2800 -0.5894 -0.7577
vn 0.3983 -0.5951 -0.6980
vn 0.9220 -0.3711 -0.1110
vn 0.8939 -0.4287 -0.1312
vn 0.9015 -0.4072 -0.1464
vn 0.4145 -0.6180 -0.6681
vn 0.3975 -0.6748 -0.6218
vn 0.5502 0.0393 0.8341
vn 0.5419 -0.0167 0.8403
vn 0.8439 -0.1559 0.5134
vn 0.9620 0.0255 0.2718
vn 0.9637 0.0009 0.2671
vn 0.7581 0.0468 0.6505
vn 0.8484 0.0716 0.5245
vn 0.8219 0.0629 0.5661
vn 0.7551 -0.3430 0.5588
vn 0.8392 -0.2330 0.4914
vn 0.7310 0.1131 0.6730
vn 0.7383 0.0380 0.6734
vn 0.9381 -0.1172 -0.3259
vn 0.9772 0.0077 -0.2123
vn 0.9704 0.0171 -0.2409
vn 0.9094 -0.3851 -0.1571
vn 0.9369 -0.0911 -0.3376
vn 0.8385 -0.3876 -0.3831
vn 0.9083 -0.3702 -0.1949
vn 0.9026 -0.0210 0.4301
vn 0.9424 0.0438 0.3316
vn 0.9160 0.0280 0.4003
vn 0.7694 -0.2061 0.6046
vn 0.8484 -0.1286 0.5135
vn 0.6706 -0.3012 0.6779
vn 0.5535 -0.1356 0.8217
vn 0.4329 -0.8259 0.3612
vn 0.2390 -0.8594 0.4519
vn 0.3781 -0.8415 0.3860
vn 0.4401 -0.3077 0.8436
vn 0.5679 -0.4346 0.6990
vn 0.8634 -0.4344 0.2566
vn 0.8309 -0.4245 0.3598
vn 0.8266 -0.4638 0.3187
vn 0.5098 -0.4734 0.7183
vn 0.3188 -0.5695 0.7577
vn 0.2567 -0.5705 0.7801
vn 0.4802 -0.5745 0.6628
vn -0.0398 -0.3212 0.9462
vn 0.0600 -0.4414 0.8953
vn 0.0577 -0.3602 0.9311
vn 0.5179 -0.8208 0.2411
vn -0.1586 -0.9790 0.1279
vn -0.1204 -0.9825 0.1422
vn -0.2348 -0.9671 0.0983
vn 0.8748 0.2693 -0.4027
vn 0.2627 0.1347 -0.9554
vn 0.5375 0.0227 0.8430
vn 0.4193 -0.0436 -0.9068
vn 0.9583 0.2401 0.1551
vn 0.7333 -0.3568 0.5787
vn 0.7249 0.1560 0.6710
vn 0.8115 -0.3368 -0.4776
vn 0.1758 -0.8812 0.4387
vn 0.8352 -0.1054 0.5398
vn 0.9845 0.1060 -0.1399
vn 0.9936 0.0405 -0.1056
vn 0.8534 -0.4917 0.1729
vn -0.9999 -0.0016 0.0115
vn -0.7742 -0.3499 0.5274
vn -0.7579 -0.4733 0.4490
vn -0.7472 -0.5183 0.4160
vn -0.8196 -0.2094 -0.5333
vn -0.7094 -0.6173 -0.3401
vn -0.7007 -0.6430 0.3093
vn 0.1189 -0.7930 0.5975
vn 0.2428 -0.7815 0.5748
vn 0.1959 -0.7873 0.5845
vn -0.0028 -0.9083 -0.4183
vn 0.0368 -0.8888 -0.4569
vn 0.0405 -0.8867 -0.4605
vn 0.3312 -0.7650 0.5523
vn 0.4430 -0.1995 -0.8741
vn 0.0759 -0.8663 -0.4937
vn 0.9442 -0.1947 -0.2656
vn 0.7057 -0.5566 0.4384
vn 0.5909 -0.5698 0.5711
vn -0.3546 -0.9214 -0.1592
vn -0.3729 -0.9141 -0.1595
vn -0.4688 -0.8687 -0.1600
vn 0.1894 -0.2509 0.9493
vn 0.3665 -0.1996 0.9087
vn 0.3816 -0.3516 0.8548
vn -0.2670 -0.9508 -0.1570
vn 0.1214 -0.9601 0.2520
vn 0.1326 -0.9678 0.2141
vn 0.1640 -0.9812 0.1020
vn 0.3513 -0.5126 0.7835
vn 0.6092 -0.2317 0.7584
vn 0.1904 -0.9817 -0.0002
vn 0.4236 -0.5616 0.7107
vn 0.2293 -0.8747 -0.4270
vn 0.2688 -0.8888 -0.3712
vn 0.3494 -0.9044 -0.2448
vn 0.3064 -0.2988 0.9038
vn 0.6849 -0.2108 0.6975
vn 0.6832 -0.2437 0.6884
vn -0.3540 -0.8164 0.4564
vn -0.3530 -0.8327 0.4266
vn -0.3472 -0.8790 0.3268
vn 0.1162 -0.4775 0.8709
vn -0.3603 -0.1362 -0.9228
vn 0.1311 -0.4671 0.8745
vn 0.2639 -0.9057 -0.3317
vn 0.3240 -0.9020 -0.2854
vn 0.0909 -0.8889 -0.4490
vn 0.0321 -0.8746 -0.4838
vn 0.3842 -0.6820 -0.6223
vn 0.6856 -0.1886 0.7032
vn 0.3931 -0.9186 -0.0413
vn 0.8778 -0.4543 0.1521
vn 0.8808 -0.0766 0.4673
vn 0.7532 -0.5719 -0.3249
vn 0.7775 -0.5285 -0.3409
vn 0.7938 -0.4960 -0.3520
vn -0.2675 -0.9598 0.0853
vn -0.6055 -0.5572 -0.5682
vn 0.0714 -0.1184 0.9904
vn 0.0723 -0.0573 0.9957
vn 0.0726 -0.0378 0.9966
vn -0.3546 -0.7736 0.5251
vn -0.9960 0.0069 -0.0886
vn -0.9976 -0.0313 -0.0620
vn -0.9991 -0.0267 -0.0343
vn -0.9987 -0.0150 -0.0482
vn -0.9911 -0.0298 -0.1299
vn 0.9554 -0.0221 -0.2944
vn 0.9437 -0.1112 -0.3116
vn 0.8703 -0.0878 -0.4846
vn 0.9215 -0.0189 -0.3880
vn 0.8568 -0.2176 -0.4675
vn 0.9195 -0.2684 -0.2872
vn 0.9324 -0.2585 -0.2525
vn 0.8898 -0.2918 -0.3508
vn 0.8693 -0.2857 -0.4034
vn 0.6560 -0.1443 -0.7408
vn 0.6628 -0.1479 -0.7341
vn 0.7315 -0.3005 -0.6121
vn 0.7235 -0.2599 -0.6395
vn 0.6870 0.2204 -0.6924
vn 0.6882 0.3136 -0.6542
vn 0.6797 0.4280 -0.5957
vn 0.2188 -0.8145 -0.5373
vn 0.2920 -0.8155 -0.4997
vn 0.2281 -0.8150 -0.5328
vn 0.6652 0.5121 -0.5434
vn 0.5523 -0.0478 -0.8323
vn 0.6728 -0.1097 -0.7317
vn 0.4861 -0.0400 -0.8730
vn 0.1401 -0.8437 -0.5183
vn 0.1404 -0.8431 -0.5190
vn 0.5286 -0.0372 -0.8480
vn 0.5476 -0.0189 -0.8365
vn 0.7579 -0.4768 0.4453
vn 0.9350 0.2537 -0.2477
vn 0.9314 -0.2526 0.2619
vn 0.8193 -0.3950 -0.4157
vn 0.4146 0.2923 -0.8618
vn 0.4556 -0.8415 -0.2904
vn -0.1366 -0.9477 -0.2884
vn 0.7412 -0.6700 0.0427
vn 0.8266 -0.5516 -0.1115
vn 0.8058 -0.5883 -0.0676
vn 0.9503 -0.2720 0.1515
vn 0.9900 -0.1347 0.0421
vn 0.9807 -0.1794 0.0775
vn -0.2145 -0.3950 -0.8933
vn 0.9464 -0.2410 0.2149
vn 0.9787 0.0101 -0.2049
vn 0.8927 0.4506 -0.0094
vn 0.9160 0.3956 0.0661
vn 0.9271 0.3559 0.1174
vn 0.3377 -0.4979 -0.7988
vn 0.3276 -0.3586 -0.8741
vn 0.3227 -0.3129 -0.8933
vn 0.8130 -0.5199 -0.2620
vn 0.9544 -0.1715 -0.2444
vn 0.9536 -0.1694 -0.2488
vn 0.8015 0.1959 -0.5650
vn 0.7748 -0.5178 -0.3626
vn 0.8543 -0.4317 -0.2895
vn 0.9368 0.2830 0.2057
vn 0.3018 -0.1626 -0.9394
vn 0.9084 0.3161 -0.2736
vn 0.7350 -0.2942 -0.6109
vn 0.8290 -0.3796 -0.4106
vn 0.7909 -0.4688 -0.3934
vn 0.7113 -0.3277 -0.6218
vn 0.7170 -0.6870 0.1180
vn 0.7125 -0.7012 0.0265
vn 0.7732 -0.6271 -0.0944
vn -0.0363 -0.9646 0.2612
vn -0.8019 -0.5804 0.1417
vn 0.1953 -0.7935 0.5764
vn 0.7062 -0.4180 0.5714
vn 0.4190 -0.9002 -0.1189
vn -0.3614 -0.9279 -0.0913
vn 0.4947 0.3249 -0.8060
vn 0.5951 -0.6687 -0.4458
vn 0.5309 -0.7126 -0.4586
vn 0.6012 -0.6642 -0.4444
vn 0.0664 -0.9765 -0.2051
vn -0.3497 -0.7171 -0.6029
vn -0.1175 -0.1286 -0.9847
vn -0.2805 -0.8698 -0.4060
vn 0.6511 -0.3075 -0.6939
vn 0.6881 -0.1999 -0.6976
vn 0.9987 -0.0363 -0.0351
vn 0.6399 -0.2565 -0.7244
vn -0.6015 -0.4066 -0.6876
vn 0.0632 -0.9516 -0.3008
vn 0.0176 -0.9581 -0.2861
vn 0.0639 -0.9857 -0.1557
vn 0.7589 -0.1721 -0.6280
vn 0.7917 -0.1900 -0.5806
vn -0.2860 0.1590 -0.9449
vn 0.7323 0.6708 -0.1173
vn 0.7153 -0.1151 -0.6893
vn -0.1491 0.0744 -0.9860
vn 0.7995 0.4529 -0.3946
vn 0.8319 0.5103 -0.2180
vn 0.8213 0.4873 -0.2966
vn 0.7788 0.4258 -0.4606
vn -0.0236 -0.9493 -0.3134
vn 0.8033 -0.5648 -0.1890
vn -0.6637 -0.6565 -0.3585
vn -0.6635 -0.6553 -0.3609
vn -0.6670 -0.6804 -0.3036
vn 0.3513 -0.2584 -0.8999
vn 0.3672 -0.5072 -0.7797
vn 0.3220 -0.5730 -0.7536
vn 0.3147 -0.2751 -0.9085
vn 0.4173 -0.6006 -0.6820
vn 0.3251 -0.6660 -0.6714
vn 0.2163 -0.7274 -0.6512
vn 0.8160 -0.5441 -0.1953
vn 0.4675 0.8531 -0.2316
vn 0.2854 0.9129 -0.2918
vn 0.3561 0.8945 -0.2702
vn 0.0158 -0.9885 -0.1504
vn 0.1401 0.9337 -0.3294
vn 0.1890 -0.9810 -0.0428
vn 0.2906 -0.1431 -0.9461
vn 0.6040 -0.1022 -0.7904
vn 0.4105 -0.1384 -0.9013
vn 0.1225 -0.8719 -0.4742
vn 0.1923 0.8183 -0.5417
vn 0.3830 -0.0136 -0.9236
vn 0.4347 0.1025 -0.8947
vn 0.4360 0.1999 -0.8775
vn 0.4170 -0.1613 -0.8945
vn 0.4335 0.8729 -0.2237
vn 0.3992 0.8843 -0.2421
vn 0.4509 0.8665 -0.2141
vn 0.4373 0.8760 -0.2035
vn 0.3753 0.9018 -0.2144
vn 0.3146 0.9224 -0.2240
vn 0.1256 0.2310 -0.9648
vn 0.1191 0.3427 -0.9319
vn 0.6190 0.5236 -0.5855
vn -0.6028 -0.5714 -0.5568
vn -0.6169 -0.4180 -0.6668
vn -0.6150 -0.4654 -0.6365
vn 0.0518 -0.0286 -0.9982
vn 0.0014 0.0303 -0.9995
vn -0.5296 -0.4269 -0.7330
vn -0.1066 -0.0664 -0.9921
vn -0.1807 -0.1366 -0.9740
vn -0.1213 -0.0803 -0.9894
vn -0.0657 -0.0603 -0.9960
vn -0.1102 -0.0102 -0.9939
vn -0.6598 -0.6373 -0.3981
vn 0.8197 0.5229 -0.2339
vn 0.9369 0.0882 -0.3384
vn -0.1520 -0.0145 -0.9883
vn 0.4856 0.5501 -0.6794
vn -0.0232 0.2586 -0.9657
vn 0.0620 0.3897 -0.9189
vn -0.6107 -0.2670 -0.7455
vn -0.2041 0.0805 -0.9756
vn -1.0000 0.0040 -0.0034
vn -1.0000 0.0030 -0.0054
vn -0.9997 -0.0047 -0.0258
vn -0.9998 0.0138 -0.0130
vn -0.9998 0.0147 0.0113
vn -1.0000 -0.0011 -0.0089
vn -1.0000 -0.0071 0.0023
vn -0.9999 0.0035 0.0097
vn -0.0036 -0.7020 -0.7122
vn 0.4098 -0.5707 -0.7115
vn 0.3723 -0.5644 -0.7367
vn 0.4297 -0.5736 -0.6974
vn -0.4666 0.8800 -0.0889
vn -0.4236 0.9057 0.0157
vn -0.9995 0.0276 0.0122
vn -0.9996 0.0013 0.0271
vn -0.3419 -0.1433 -0.9287
vn -0.3439 -0.2135 -0.9144
vn -0.3395 -0.0928 -0.9360
vn 0.4701 -0.5786 -0.6665
vn 0.7789 -0.0490 -0.6253
vn 0.7756 0.0740 -0.6268
vn 0.5987 0.2064 -0.7739
vn 0.6826 0.2558 -0.6846
vn 0.0665 0.5958 -0.8004
vn 0.0706 0.5581 -0.8268
vn 0.7299 0.0315 -0.6828
vn -0.3347 -0.0234 -0.9420
vn -0.7156 0.0916 -0.6925
vn 0.4082 0.3743 -0.8326
vn 0.4865 0.3784 -0.7875
vn 0.4784 0.1345 -0.8678
vn 0.3816 0.1885 -0.9049
vn 0.4404 0.5587 -0.7027
vn 0.4472 0.5233 -0.7254
vn 0.5290 0.3502 -0.7730
vn 0.9907 0.1048 0.0862
vn 0.7216 0.6915 0.0339
vn 0.0532 0.3970 -0.9163
vn 0.4546 0.6018 -0.6566
vn 0.0997 0.7513 -0.6524
vn 0.1214 0.7768 -0.6179
vn 0.7608 0.5004 -0.4132
vn 0.7957 0.5365 -0.2811
vn 0.7521 0.4781 -0.4536
vn 0.8311 0.4982 -0.2470
vn 0.1634 0.9717 -0.1705
vn -0.0166 -0.5245 -0.8512
vn -0.7231 0.3255 -0.6092
vn -0.8103 0.2139 -0.5457
vn -0.8309 0.1741 -0.5284
vn 0.3986 0.6128 -0.6823
vn 0.3739 0.6770 -0.6340
vn 0.5242 0.6834 -0.5081
vn -0.7106 0.3432 -0.6142
vn 0.7131 0.5943 -0.3719
vn 0.6220 0.6919 -0.3665
vn -0.0254 0.3244 -0.9456
vn 0.6610 0.6294 -0.4085
vn 0.5578 0.7215 -0.4103
vn 0.6551 0.6922 -0.3028
vn 0.7044 0.6056 -0.3703
vn 0.6909 -0.3209 -0.6478
vn 0.4013 0.9158 -0.0149
vn 0.5407 -0.1541 -0.8270
vn 0.1409 0.9822 -0.1246
vn 0.9235 0.1355 -0.3590
vn 0.9472 0.1710 -0.2711
vn 0.9161 -0.3329 -0.2237
vn 0.9549 -0.2570 -0.1489
vn 0.9604 -0.2434 -0.1357
vn 0.7116 0.2796 0.6445
vn 0.9136 0.3050 -0.2688
vn 0.9483 0.2614 -0.1799
vn 0.7430 0.1164 -0.6591
vn 0.9826 -0.1729 -0.0676
vn 0.2730 -0.8730 -0.4040
vn 0.8696 0.4456 -0.2127
vn 0.9649 -0.0832 -0.2492
vn 0.9596 -0.1290 -0.2501
vn 0.8489 0.5066 0.1506
vn 0.8827 0.4561 -0.1129
vn 0.5944 0.0389 0.8032
vn 0.6651 0.4227 0.6156
vn 0.6318 0.5160 0.5785
vn 0.6456 0.4803 0.5937
vn 0.9240 -0.2175 -0.3144
vn 0.9285 -0.2193 -0.2996
vn 0.9587 0.2134 -0.1878
vn 0.9806 0.0833 -0.1772
vn 0.5999 0.5868 0.5439
vn 0.9044 -0.2100 -0.3713
vn 0.8876 0.4038 0.2215
vn 0.1196 -0.3404 0.9326
vn 0.2568 -0.2357 0.9373
vn 0.3568 -0.0016 0.9342
vn 0.4524 -0.0254 0.8914
vn 0.3512 -0.0393 0.9355
vn 0.2452 -0.0254 0.9691
vn -0.2911 -0.5509 0.7821
vn -0.2412 -0.5224 0.8179
vn -0.2765 -0.5427 0.7931
vn 0.3850 -0.0426 0.9219
vn -0.9058 -0.3456 0.2450
vn -0.9354 -0.2890 0.2036
vn -0.9291 -0.3081 0.2044
vn -0.3759 -0.5950 0.7104
vn 0.5502 -0.0079 0.8350
vn 0.9287 0.3191 -0.1887
vn 0.7221 0.5088 0.4688
vn 0.9452 -0.0413 0.3238
vn 0.6669 -0.1087 0.7372
vn 0.9621 0.0409 0.2698
vn 0.9314 0.2333 0.2796
vn 0.4272 0.1901 0.8839
vn 0.3962 0.1427 0.9070
vn 0.3519 0.0777 0.9328
vn 0.3314 0.0487 0.9422
vn 0.3580 0.8366 -0.4147
vn 0.3484 0.8971 -0.2716
vn 0.8268 0.5064 0.2450
vn -0.2074 -0.0508 -0.9769
vn 0.4236 0.7630 -0.4882
vn -0.7063 0.3229 -0.6300
vn 0.7364 0.3818 -0.5585
vn 0.1580 0.8166 -0.5551
vn 0.1854 0.8544 -0.4855
vn 0.2802 0.9272 -0.2487
vn 0.1152 0.8820 0.4569
vn -0.3369 0.0119 -0.9415
vn 0.5972 0.7966 0.0938
vn 0.6456 0.7601 0.0734
vn 0.6917 0.7202 0.0527
vn 0.2661 0.3819 0.8851
vn -0.0282 0.8150 0.5788
vn 0.7427 -0.3107 0.5932
vn 0.9719 0.1330 0.1940
vn -0.2697 0.8250 -0.4966
vn 0.7842 0.5792 0.2226
vn 0.4170 0.8407 -0.3454
vn -0.5803 0.8058 0.1179
vn 0.4097 0.4546 -0.7909
vn 0.9082 -0.3484 -0.2317
vn 0.5832 0.4864 0.6507
vn 0.3328 0.8453 -0.4180
vn 0.7226 0.3003 0.6226
vn 0.6626 0.4289 0.6141
vn 0.5772 0.5379 0.6145
vn 0.5408 -0.3820 0.7494
vn 0.3786 0.7138 0.5892
vn 0.3474 0.7166 0.6048
vn 0.6989 0.7145 -0.0322
vn 0.9715 0.1474 0.1857
vn 0.9538 0.2271 0.1967
vn 0.9860 0.0201 0.1657
vn 0.9233 0.3227 0.2084
vn 0.1896 0.8303 0.5240
vn 0.2118 0.8088 0.5486
vn 0.2965 0.9539 -0.0459
vn 0.7687 0.6395 0.0142
vn 0.0468 -0.0046 0.9989
vn -0.0242 -0.0265 0.9994
vn 0.0748 0.0041 0.9972
vn -0.8914 0.4473 0.0727
vn -0.9111 0.3706 -0.1804
vn -0.9610 0.2470 -0.1244
vn -0.8858 0.4626 0.0380
vn 0.1635 0.0318 0.9860
vn -0.9458 0.2437 -0.2147
vn -0.9872 0.1025 -0.1218
vn -0.9955 0.0924 0.0229
vn -0.9974 0.0699 0.0162
vn -0.9947 0.1000 0.0252
vn -0.9979 0.0649 -0.0041
vn -0.9964 0.0667 -0.0515
vn -0.2892 -0.9552 0.0628
vn -0.2562 -0.9628 -0.0855
vn -0.2629 -0.9631 -0.0578
vn -0.9382 -0.2907 -0.1879
vn -0.3467 0.4101 0.8436
vn -0.3820 0.3409 0.8590
vn -0.3705 0.3641 0.8545
vn -0.2259 -0.9530 -0.2016
vn -0.3730 0.9195 0.1237
vn -0.9993 0.0084 0.0357
vn -0.9745 0.1515 -0.1654
vn -0.9986 0.0360 -0.0386
vn -0.9318 0.2134 0.2937
vn -0.9710 0.1475 0.1882
vn -0.9353 0.0583 0.3491
vn -0.9941 0.0761 0.0778
vn -0.9949 0.1007 -0.0047
vn -0.9406 0.3104 0.1375
vn -0.4453 -0.3574 0.8210
vn -0.0102 -0.7112 0.7029
vn -0.9936 0.0513 -0.1007
vn -0.9995 0.0321 0.0067
vn -0.0011 -0.0799 0.9968
vn -0.6584 0.2259 0.7179
vn -0.8755 -0.3923 0.2821
vn -0.8331 -0.4388 0.3367
vn -0.0000 -0.2260 -0.9741
vn -0.0000 0.3661 -0.9306
vn -0.0000 0.2035 -0.9791
vn -0.0000 0.3627 -0.9319
vn -0.0000 -0.7582 -0.6520
vn -0.0000 -0.9615 0.2748
vn -0.0000 -0.9049 0.4256
vn -0.0000 -0.9628 0.2702
vn -0.0000 0.5120 -0.8590
vn -0.0000 -0.9942 0.1074
vn -0.9846 -0.1439 -0.0990
vn -0.0000 -0.3101 0.9507
vn -0.0000 0.9988 0.0498
vn 0.3879 0.8915 -0.2342
vn 0.2165 -0.9591 0.1823
vn -0.1117 0.9082 -0.4033
vn 0.7134 0.6033 0.3566
vn 0.6686 0.5396 0.5116
vn 0.6666 0.5369 0.5171
vn 0.5580 -0.7443 -0.3670
vn 0.7225 -0.6354 -0.2724
vn 0.5577 -0.7445 -0.3671
vn -0.2175 -0.8676 0.4472
vn -0.2299 -0.8566 0.4620
vn -0.2310 -0.8555 0.4633
vn 0.7528 -0.5755 0.3197
vn 0.6390 0.5019 0.5828
vn -0.1876 0.8104 0.5550
vn 0.6615 -0.5045 0.5549
vn 0.3875 0.8100 0.4402
vn -0.2389 -0.8483 0.4726
vn 0.2102 -0.7343 0.6455
vn 0.3305 -0.7797 0.5318
vn 0.3063 -0.7722 0.5567
vn 0.8796 -0.2086 0.4276
vn 0.2385 -0.9439 0.2284
vn 0.2144 -0.9121 0.3495
vn 0.1960 -0.8818 0.4290
vn 0.7966 0.0113 0.6044
vn -0.7463 0.4133 0.5217
vn -0.9846 0.1514 -0.0873
vn -0.7719 0.6334 0.0538
vn 0.8898 0.0437 -0.4543
vn 0.8656 0.0749 -0.4952
vn 0.8751 0.0631 -0.4798
vn 0.9025 0.0256 -0.4300
vn 0.2609 -0.9613 0.0888
vn 0.4264 -0.7995 -0.4230
vn 0.4194 -0.7995 0.4300
vn 0.9910 0.1323 0.0186
vn -0.1670 -0.0553 0.9844
vn -0.0309 0.0403 0.9987
vn -0.2942 0.0229 0.9555
vn -0.0069 -0.1471 0.9891
vn 0.1529 0.1716 0.9732
vn 0.0061 0.1970 0.9804
vn -0.1944 0.0813 0.9776
vn 0.0715 -0.1054 0.9919
vn 0.1732 0.0425 0.9840
vn 0.1334 -0.0449 0.9900
vn 0.4359 0.8830 -0.1739
vn -0.0000 0.2231 0.9748
vn 0.1180 0.2215 0.9680
vn -0.2686 0.3577 0.8944
vn -0.4001 0.3027 0.8651
vn -0.7209 -0.1937 0.6654
vn 0.0733 0.0322 0.9968
vn 0.9960 0.0009 0.0889
vn 0.9989 0.0017 0.0465
vn 0.9996 -0.0227 0.0147
vn -0.1611 0.0548 -0.9854
vn -0.1935 0.0802 -0.9778
vn -0.2234 0.1037 -0.9692
vn -0.5434 0.0001 0.8395
vn -0.5445 0.0057 0.8387
vn -0.5529 0.0218 0.8330
vn -0.2584 -0.3108 -0.9147
vn -0.2534 -0.2135 -0.9435
vn -0.2621 -0.3097 -0.9140
vn -0.6265 -0.0236 0.7791
vn -0.9919 -0.1031 -0.0747
vn -0.9485 -0.3110 -0.0606
vn -0.9823 -0.1724 -0.0727
vn -0.9302 -0.3565 -0.0875
vn -0.9489 -0.3092 -0.0630
vn -0.2755 -0.1765 -0.9450
vn -0.3782 -0.0499 -0.9244
vn -0.5615 -0.0233 0.8271
vn -0.6918 -0.1794 0.6994
vn -0.3235 -0.5731 -0.7529
vn -0.3983 -0.5951 -0.6980
vn -0.2800 -0.5894 -0.7577
vn -0.8939 -0.4287 -0.1312
vn -0.9220 -0.3711 -0.1110
vn -0.9015 -0.4072 -0.1464
vn -0.4145 -0.6180 -0.6681
vn -0.3975 -0.6748 -0.6218
vn -0.5419 -0.0167 0.8403
vn -0.5502 0.0393 0.8341
vn -0.8439 -0.1559 0.5134
vn -0.9637 0.0009 0.2671
vn -0.9620 0.0255 0.2718
vn -0.7581 0.0468 0.6505
vn -0.8219 0.0629 0.5661
vn -0.8484 0.0716 0.5245
vn -0.7551 -0.3430 0.5588
vn -0.8392 -0.2330 0.4914
vn -0.7310 0.1131 0.6730
vn -0.7383 0.0380 0.6734
vn -0.9381 -0.1172 -0.3259
vn -0.9704 0.0171 -0.2409
vn -0.9772 0.0077 -0.2123
vn -0.9094 -0.3851 -0.1571
vn -0.9369 -0.0911 -0.3376
vn -0.8385 -0.3876 -0.3831
vn -0.9083 -0.3702 -0.1949
vn -0.9026 -0.0210 0.4301
vn -0.9160 0.0280 0.4003
vn -0.9424 0.0438 0.3316
vn -0.7694 -0.2061 0.6046
vn -0.8484 -0.1286 0.5135
vn -0.6706 -0.3012 0.6779
vn -0.5535 -0.1356 0.8217
vn -0.4329 -0.8259 0.3612
vn -0.3781 -0.8415 0.3860
vn -0.2390 -0.8594 0.4519
vn -0.5679 -0.4346 0.6990
vn -0.4401 -0.3077 0.8436
vn -0.8634 -0.4344 0.2566
vn -0.8266 -0.4638 0.3187
vn -0.8309 -0.4245 0.3598
vn -0.5098 -0.4734 0.7183
vn -0.3188 -0.5695 0.7577
vn -0.4802 -0.5745 0.6628
vn -0.2567 -0.5705 0.7801
vn 0.0398 -0.3212 0.9462
vn -0.0577 -0.3602 0.9311
vn -0.0600 -0.4414 0.8953
vn -0.5179 -0.8208 0.2411
vn 0.1586 -0.9790 0.1279
vn 0.2348 -0.9671 0.0983
vn 0.1204 -0.9825 0.1422
vn -0.8748 0.2693 -0.4027
vn -0.2627 0.1347 -0.9554
vn -0.5375 0.0227 0.8430
vn -0.4193 -0.0436 -0.9068
vn -0.9583 0.2401 0.1551
vn -0.7333 -0.3568 0.5787
vn -0.7249 0.1560 0.6710
vn -0.8115 -0.3368 -0.4776
vn -0.1758 -0.8812 0.4387
vn -0.8352 -0.1054 0.5398
vn -0.9936 0.0405 -0.1056
vn -0.9845 0.1060 -0.1399
vn -0.8534 -0.4917 0.1729
vn 0.9999 -0.0016 0.0115
vn 0.7742 -0.3499 0.5274
vn 0.7472 -0.5183 0.4160
vn 0.7579 -0.4733 0.4490
vn 0.8196 -0.2094 -0.5333
vn 0.7094 -0.6173 -0.3401
vn 0.7007 -0.6430 0.3093
vn -0.1189 -0.7930 0.5975
vn -0.1959 -0.7873 0.5845
vn -0.2428 -0.7815 0.5748
vn 0.0028 -0.9083 -0.4183
vn -0.0405 -0.8867 -0.4605
vn -0.0368 -0.8888 -0.4569
vn -0.3312 -0.7650 0.5523
vn -0.4430 -0.1995 -0.8741
vn -0.0759 -0.8663 -0.4937
vn -0.9442 -0.1947 -0.2656
vn -0.7057 -0.5566 0.4384
vn -0.5909 -0.5698 0.5711
vn 0.3546 -0.9214 -0.1592
vn 0.4688 -0.8687 -0.1600
vn 0.3729 -0.9141 -0.1595
vn -0.1894 -0.2509 0.9493
vn -0.3816 -0.3516 0.8548
vn -0.3665 -0.1996 0.9087
vn 0.2670 -0.9508 -0.1570
vn -0.1214 -0.9601 0.2520
vn -0.1640 -0.9812 0.1020
vn -0.1326 -0.9678 0.2141
vn -0.3513 -0.5126 0.7835
vn -0.6092 -0.2317 0.7584
vn -0.1904 -0.9817 -0.0002
vn -0.4236 -0.5616 0.7107
vn -0.2293 -0.8747 -0.4270
vn -0.3494 -0.9044 -0.2448
vn -0.2688 -0.8888 -0.3712
vn -0.3064 -0.2988 0.9038
vn -0.6832 -0.2437 0.6884
vn -0.6849 -0.2108 0.6975
vn 0.3540 -0.8164 0.4564
vn 0.3472 -0.8790 0.3268
vn 0.3530 -0.8327 0.4266
vn -0.1162 -0.4775 0.8709
vn 0.3603 -0.1362 -0.9228
vn -0.1311 -0.4671 0.8745
vn -0.2639 -0.9057 -0.3317
vn -0.0909 -0.8889 -0.4490
vn -0.3240 -0.9020 -0.2854
vn -0.0321 -0.8746 -0.4838
vn -0.3842 -0.6820 -0.6223
vn -0.6856 -0.1886 0.7032
vn -0.3931 -0.9186 -0.0413
vn -0.8778 -0.4543 0.1521
vn -0.8808 -0.0766 0.4673
vn -0.7532 -0.5719 -0.3249
vn -0.7938 -0.4960 -0.3520
vn -0.7775 -0.5285 -0.3409
vn 0.2675 -0.9598 0.0853
vn 0.6055 -0.5572 -0.5682
vn -0.0714 -0.1184 0.9904
vn -0.0726 -0.0378 0.9966
vn -0.0723 -0.0573 0.9957
vn 0.3546 -0.7736 0.5251
vn 0.9960 0.0069 -0.0886
vn 0.9987 -0.0150 -0.0482
vn 0.9991 -0.0267 -0.0343
vn 0.9976 -0.0313 -0.0620
vn 0.9911 -0.0298 -0.1299
vn -0.9554 -0.0221 -0.2944
vn -0.9215 -0.0189 -0.3880
vn -0.8703 -0.0878 -0.4846
vn -0.9437 -0.1112 -0.3116
vn -0.8568 -0.2176 -0.4675
vn -0.9195 -0.2684 -0.2872
vn -0.8693 -0.2857 -0.4034
vn -0.8898 -0.2918 -0.3508
vn -0.9324 -0.2585 -0.2525
vn -0.6628 -0.1479 -0.7341
vn -0.6560 -0.1443 -0.7408
vn -0.7235 -0.2599 -0.6395
vn -0.7315 -0.3005 -0.6121
vn -0.6870 0.2204 -0.6924
vn -0.6797 0.4280 -0.5957
vn -0.6882 0.3136 -0.6542
vn -0.2188 -0.8145 -0.5373
vn -0.2281 -0.8150 -0.5328
vn -0.2920 -0.8155 -0.4997
vn -0.6652 0.5121 -0.5434
vn -0.5523 -0.0478 -0.8323
vn -0.4861 -0.0400 -0.8730
vn -0.6728 -0.1097 -0.7317
vn -0.1404 -0.8431 -0.5190
vn -0.1401 -0.8437 -0.5183
vn -0.5476 -0.0189 -0.8365
vn -0.5286 -0.0372 -0.8480
vn -0.7579 -0.4768 0.4453
vn -0.9350 0.2537 -0.2477
vn -0.9314 -0.2526 0.2619
vn -0.8193 -0.3950 -0.4157
vn -0.4146 0.2923 -0.8618
vn -0.4556 -0.8415 -0.2904
vn 0.1366 -0.9477 -0.2884
vn -0.7412 -0.6700 0.0427
vn -0.8058 -0.5883 -0.0676
vn -0.8266 -0.5516 -0.1115
vn -0.9503 -0.2720 0.1515
vn -0.9807 -0.1794 0.0775
vn -0.9900 -0.1347 0.0421
vn 0.2145 -0.3950 -0.8933
vn -0.9464 -0.2410 0.2149
vn -0.9787 0.0101 -0.2049
vn -0.8927 0.4506 -0.0094
vn -0.9271 0.3559 0.1174
vn -0.9160 0.3956 0.0661
vn -0.3377 -0.4979 -0.7988
vn -0.3227 -0.3129 -0.8933
vn -0.3276 -0.3586 -0.8741
vn -0.8130 -0.5199 -0.2620
vn -0.9544 -0.1715 -0.2444
vn -0.9536 -0.1694 -0.2488
vn -0.8015 0.1959 -0.5650
vn -0.8543 -0.4317 -0.2895
vn -0.7748 -0.5178 -0.3626
vn -0.9368 0.2830 0.2057
vn -0.3018 -0.1626 -0.9394
vn -0.9084 0.3161 -0.2736
vn -0.7350 -0.2942 -0.6109
vn -0.7113 -0.3277 -0.6218
vn -0.7909 -0.4688 -0.3934
vn -0.8290 -0.3796 -0.4106
vn -0.7170 -0.6870 0.1180
vn -0.7732 -0.6271 -0.0944
vn -0.7125 -0.7012 0.0265
vn 0.0363 -0.9646 0.2612
vn 0.8019 -0.5804 0.1417
vn -0.1953 -0.7935 0.5764
vn -0.7062 -0.4180 0.5714
vn -0.4190 -0.9002 -0.1189
vn 0.3614 -0.9279 -0.0913
vn -0.4947 0.3249 -0.8060
vn -0.5951 -0.6687 -0.4458
vn -0.6012 -0.6642 -0.4444
vn -0.5309 -0.7126 -0.4586
vn -0.0664 -0.9765 -0.2051
vn 0.3497 -0.7171 -0.6029
vn 0.1175 -0.1286 -0.9847
vn 0.2805 -0.8698 -0.4060
vn -0.6881 -0.1999 -0.6976
vn -0.6511 -0.3075 -0.6939
vn -0.9987 -0.0363 -0.0351
vn -0.6399 -0.2565 -0.7244
vn 0.6015 -0.4066 -0.6876
vn -0.0632 -0.9516 -0.3008
vn -0.0639 -0.9857 -0.1557
vn -0.0176 -0.9581 -0.2861
vn -0.7589 -0.1721 -0.6280
vn -0.7917 -0.1900 -0.5806
vn 0.2860 0.1590 -0.9449
vn -0.7323 0.6708 -0.1173
vn -0.7153 -0.1151 -0.6893
vn 0.1491 0.0744 -0.9860
vn -0.7995 0.4529 -0.3946
vn -0.8213 0.4873 -0.2966
vn -0.8319 0.5103 -0.2180
vn -0.7788 0.4258 -0.4606
vn 0.0236 -0.9493 -0.3134
vn -0.8033 -0.5648 -0.1890
vn 0.6637 -0.6565 -0.3585
vn 0.6670 -0.6804 -0.3036
vn 0.6635 -0.6553 -0.3609
vn -0.3513 -0.2584 -0.8999
vn -0.3147 -0.2751 -0.9085
vn -0.3220 -0.5730 -0.7536
vn -0.3672 -0.5072 -0.7797
vn -0.4173 -0.6006 -0.6820
vn -0.3251 -0.6660 -0.6714
vn -0.2163 -0.7274 -0.6512
vn -0.8160 -0.5441 -0.1953
vn -0.4675 0.8531 -0.2316
vn -0.3561 0.8945 -0.2702
vn -0.2854 0.9129 -0.2918
vn -0.0158 -0.9885 -0.1504
vn -0.1401 0.9337 -0.3294
vn -0.1890 -0.9810 -0.0428
vn -0.2906 -0.1431 -0.9461
vn -0.6040 -0.1022 -0.7904
vn -0.4105 -0.1384 -0.9013
vn -0.1225 -0.8719 -0.4742
vn -0.1923 0.8183 -0.5417
vn -0.3830 -0.0136 -0.9236
vn -0.4360 0.1999 -0.8775
vn -0.4347 0.1025 -0.8947
vn -0.4170 -0.1613 -0.8945
vn -0.4335 0.8729 -0.2237
vn -0.4509 0.8665 -0.2141
vn -0.3992 0.8843 -0.2421
vn -0.4373 0.8760 -0.2035
vn -0.3753 0.9018 -0.2144
vn -0.3146 0.9224 -0.2240
vn -0.1191 0.3427 -0.9319
vn -0.1256 0.2310 -0.9648
vn -0.6190 0.5236 -0.5855
vn 0.6028 -0.5714 -0.5568
vn 0.6150 -0.4654 -0.6365
vn 0.6169 -0.4180 -0.6668
vn -0.0518 -0.0286 -0.9982
vn -0.0014 0.0303 -0.9995
vn 0.5296 -0.4269 -0.7330
vn 0.1066 -0.0664 -0.9921
vn 0.1213 -0.0803 -0.9894
vn 0.1807 -0.1366 -0.9740
vn 0.0657 -0.0603 -0.9960
vn 0.1102 -0.0102 -0.9939
vn 0.6598 -0.6373 -0.3981
vn -0.8197 0.5229 -0.2339
vn -0.9369 0.0882 -0.3384
vn 0.1520 -0.0145 -0.9883
vn -0.4856 0.5501 -0.6794
vn -0.0620 0.3897 -0.9189
vn 0.0232 0.2586 -0.9657
vn 0.6107 -0.2670 -0.7455
vn 0.2041 0.0805 -0.9756
vn 1.0000 0.0040 -0.0034
vn 1.0000 0.0030 -0.0054
vn 0.9997 -0.0047 -0.0258
vn 1.0000 -0.0011 -0.0089
vn 0.9998 0.0147 0.0113
vn 0.9998 0.0138 -0.0130
vn 1.0000 -0.0071 0.0023
vn 0.9999 0.0035 0.0097
vn 0.0036 -0.7020 -0.7122
vn -0.4098 -0.5707 -0.7115
vn -0.4297 -0.5736 -0.6974
vn -0.3723 -0.5644 -0.7367
vn 0.4666 0.8800 -0.0889
vn 0.4236 0.9057 0.0157
vn 0.9995 0.0276 0.0122
vn 0.9996 0.0013 0.0271
vn 0.3419 -0.1433 -0.9287
vn 0.3395 -0.0928 -0.9360
vn 0.3439 -0.2135 -0.9144
vn -0.4701 -0.5786 -0.6665
vn -0.7789 -0.0490 -0.6253
vn -0.7756 0.0740 -0.6268
vn -0.6826 0.2558 -0.6846
vn -0.5987 0.2064 -0.7739
vn -0.0665 0.5958 -0.8004
vn -0.0706 0.5581 -0.8268
vn -0.7299 0.0315 -0.6828
vn 0.3347 -0.0234 -0.9420
vn 0.7156 0.0916 -0.6925
vn -0.4082 0.3743 -0.8326
vn -0.3816 0.1885 -0.9049
vn -0.4784 0.1345 -0.8678
vn -0.4865 0.3784 -0.7875
vn -0.4472 0.5233 -0.7254
vn -0.4404 0.5587 -0.7027
vn -0.5290 0.3502 -0.7730
vn -0.9907 0.1048 0.0862
vn -0.7216 0.6915 0.0339
vn -0.0532 0.3970 -0.9163
vn -0.4546 0.6018 -0.6566
vn -0.1214 0.7768 -0.6179
vn -0.0997 0.7513 -0.6524
vn -0.7608 0.5004 -0.4132
vn -0.7521 0.4781 -0.4536
vn -0.7957 0.5365 -0.2811
vn -0.8311 0.4982 -0.2470
vn -0.1634 0.9717 -0.1705
vn 0.0166 -0.5245 -0.8512
vn 0.7231 0.3255 -0.6092
vn 0.8309 0.1741 -0.5284
vn 0.8103 0.2139 -0.5457
vn -0.3986 0.6128 -0.6823
vn -0.5242 0.6834 -0.5081
vn -0.3739 0.6770 -0.6340
vn 0.7106 0.3432 -0.6142
vn -0.7131 0.5943 -0.3719
vn -0.6220 0.6919 -0.3665
vn 0.0254 0.3245 -0.9456
vn -0.6610 0.6294 -0.4085
vn -0.7044 0.6056 -0.3703
vn -0.6551 0.6922 -0.3028
vn -0.5578 0.7215 -0.4103
vn -0.6909 -0.3209 -0.6478
vn -0.4013 0.9158 -0.0149
vn -0.5407 -0.1541 -0.8270
vn -0.1409 0.9822 -0.1246
vn -0.9472 0.1710 -0.2711
vn -0.9235 0.1355 -0.3590
vn -0.9161 -0.3329 -0.2237
vn -0.9604 -0.2434 -0.1357
vn -0.9549 -0.2570 -0.1489
vn -0.7116 0.2796 0.6445
vn -0.9136 0.3050 -0.2688
vn -0.9483 0.2614 -0.1799
vn -0.7430 0.1164 -0.6591
vn -0.9826 -0.1729 -0.0676
vn -0.2730 -0.8730 -0.4040
vn -0.8696 0.4456 -0.2127
vn -0.9596 -0.1290 -0.2501
vn -0.9649 -0.0832 -0.2492
vn -0.8827 0.4561 -0.1129
vn -0.8489 0.5066 0.1506
vn -0.5944 0.0389 0.8032
vn -0.6651 0.4227 0.6156
vn -0.6456 0.4803 0.5937
vn -0.6318 0.5160 0.5785
vn -0.9285 -0.2193 -0.2996
vn -0.9240 -0.2175 -0.3144
vn -0.9806 0.0833 -0.1772
vn -0.9587 0.2134 -0.1878
vn -0.5999 0.5868 0.5439
vn -0.9044 -0.2100 -0.3713
vn -0.8876 0.4038 0.2215
vn -0.1196 -0.3404 0.9326
vn -0.2568 -0.2357 0.9373
vn -0.3568 -0.0016 0.9342
vn -0.2452 -0.0254 0.9691
vn -0.3512 -0.0393 0.9355
vn -0.4524 -0.0254 0.8914
vn 0.2911 -0.5509 0.7821
vn 0.2765 -0.5427 0.7931
vn 0.2412 -0.5224 0.8179
vn -0.3850 -0.0426 0.9219
vn 0.9058 -0.3456 0.2450
vn 0.9291 -0.3081 0.2044
vn 0.9354 -0.2890 0.2036
vn 0.3759 -0.5950 0.7104
vn -0.5502 -0.0079 0.8350
vn -0.9287 0.3191 -0.1887
vn -0.7221 0.5088 0.4688
vn -0.9452 -0.0413 0.3238
vn -0.6669 -0.1087 0.7372
vn -0.9621 0.0409 0.2698
vn -0.9314 0.2333 0.2796
vn -0.4272 0.1901 0.8839
vn -0.3519 0.0777 0.9328
vn -0.3962 0.1427 0.9070
vn -0.3314 0.0487 0.9422
vn -0.3484 0.8971 -0.2716
vn -0.3580 0.8366 -0.4147
vn -0.8268 0.5064 0.2450
vn 0.2074 -0.0508 -0.9769
vn -0.4236 0.7630 -0.4882
vn 0.7063 0.3229 -0.6300
vn -0.7364 0.3818 -0.5585
vn -0.1580 0.8166 -0.5551
vn -0.2802 0.9272 -0.2487
vn -0.1854 0.8544 -0.4855
vn -0.1152 0.8820 0.4569
vn 0.3369 0.0119 -0.9415
vn -0.5972 0.7966 0.0938
vn -0.6917 0.7202 0.0527
vn -0.6456 0.7601 0.0734
vn -0.2661 0.3819 0.8851
vn 0.0282 0.8150 0.5788
vn -0.7427 -0.3107 0.5932
vn -0.9719 0.1330 0.1940
vn 0.2697 0.8250 -0.4966
vn -0.7842 0.5792 0.2226
vn -0.4170 0.8407 -0.3454
vn 0.5803 0.8058 0.1179
vn -0.4097 0.4546 -0.7909
vn -0.9082 -0.3484 -0.2317
vn -0.5832 0.4864 0.6507
vn -0.3328 0.8453 -0.4180
vn -0.7226 0.3003 0.6226
vn -0.5772 0.5379 0.6145
vn -0.6626 0.4289 0.6141
vn -0.5408 -0.3820 0.7494
vn -0.3786 0.7138 0.5892
vn -0.3474 0.7166 0.6048
vn -0.6989 0.7145 -0.0322
vn -0.9715 0.1474 0.1857
vn -0.9860 0.0201 0.1657
vn -0.9538 0.2271 0.1967
vn -0.9233 0.3227 0.2084
vn -0.2118 0.8088 0.5486
vn -0.1896 0.8303 0.5240
vn -0.2965 0.9539 -0.0459
vn -0.7687 0.6395 0.0142
vn -0.0468 -0.0046 0.9989
vn -0.0748 0.0041 0.9972
vn 0.0242 -0.0265 0.9994
vn 0.8914 0.4473 0.0727
vn 0.8858 0.4626 0.0380
vn 0.9610 0.2470 -0.1244
vn 0.9111 0.3706 -0.1804
vn -0.1635 0.0318 0.9860
vn 0.9872 0.1025 -0.1218
vn 0.9458 0.2437 -0.2147
vn 0.9955 0.0924 0.0229
vn 0.9947 0.1000 0.0252
vn 0.9974 0.0699 0.0162
vn 0.9979 0.0649 -0.0041
vn 0.9964 0.0667 -0.0515
vn 0.2892 -0.9552 0.0628
vn 0.2629 -0.9631 -0.0578
vn 0.2562 -0.9628 -0.0855
vn 0.9382 -0.2907 -0.1879
vn 0.3467 0.4101 0.8436
vn 0.3705 0.3641 0.8545
vn 0.3820 0.3409 0.8590
vn 0.2259 -0.9530 -0.2016
vn 0.3730 0.9195 0.1237
vn 0.9993 0.0084 0.0357
vn 0.9745 0.1515 -0.1654
vn 0.9986 0.0360 -0.0386
vn 0.9318 0.2134 0.2937
vn 0.9710 0.1475 0.1882
vn 0.9353 0.0583 0.3491
vn 0.9941 0.0761 0.0778
vn 0.9949 0.1007 -0.0047
vn 0.9406 0.3104 0.1375
vn 0.4453 -0.3574 0.8210
vn 0.0102 -0.7112 0.7029
vn 0.9936 0.0513 -0.1007
vn 0.9995 0.0321 0.0067
vn 0.0011 -0.0799 0.9968
vn 0.6584 0.2259 0.7179
vn 0.8755 -0.3923 0.2821
vn 0.8331 -0.4388 0.3367
vn 0.9846 -0.1439 -0.0990
vn -0.3879 0.8915 -0.2342
vn -0.2165 -0.9591 0.1823
vn 0.1117 0.9082 -0.4033
vn -0.7134 0.6033 0.3566
vn -0.6666 0.5369 0.5171
vn -0.6686 0.5396 0.5116
vn -0.5580 -0.7443 -0.3670
vn -0.5577 -0.7445 -0.3671
vn -0.7225 -0.6354 -0.2724
vn 0.2175 -0.8676 0.4472
vn 0.2310 -0.8555 0.4633
vn 0.2299 -0.8566 0.4620
vn -0.7528 -0.5755 0.3197
vn -0.6390 0.5019 0.5828
vn 0.1876 0.8104 0.5550
vn -0.6615 -0.5045 0.5549
vn -0.3875 0.8100 0.4402
vn 0.2389 -0.8483 0.4726
vn -0.2102 -0.7343 0.6455
vn -0.3063 -0.7722 0.5567
vn -0.3305 -0.7797 0.5318
vn -0.8796 -0.2086 0.4276
vn -0.2385 -0.9439 0.2284
vn -0.1960 -0.8818 0.4290
vn -0.2144 -0.9121 0.3495
vn -0.7966 0.0113 0.6044
vn 0.7463 0.4133 0.5217
vn 0.9846 0.1514 -0.0873
vn 0.7719 0.6334 0.0538
vn -0.8898 0.0437 -0.4543
vn -0.8751 0.0631 -0.4798
vn -0.8656 0.0749 -0.4952
vn -0.9025 0.0256 -0.4300
vn -0.2609 -0.9613 0.0888
vn -0.4264 -0.7995 -0.4230
vn -0.4194 -0.7995 0.4300
vn -0.9910 0.1323 0.0186
vn 0.1670 -0.0553 0.9844
vn 0.2942 0.0229 0.9555
vn 0.0309 0.0403 0.9987
vn 0.0069 -0.1471 0.9891
vn -0.1529 0.1716 0.9732
vn -0.0061 0.1970 0.9804
vn 0.1944 0.0813 0.9776
vn -0.0715 -0.1054 0.9919
vn -0.1732 0.0425 0.9840
vn -0.1334 -0.0449 0.9900
vn -0.4359 0.8830 -0.1739
vn -0.1180 0.2215 0.9680
vn 0.2686 0.3577 0.8944
vn 0.4001 0.3027 0.8651
vn 0.7209 -0.1937 0.6654
vn -0.0733 0.0322 0.9968
s 1
f 42//1 44//2 43//3
f 1//4 2//5 5//6
f 4//7 3//8 8//9
f 6//10 2//11 9//12
f 4//7 8//9 10//13
f 2//14 4//15 9//16
f 9//16 10//17 13//18
f 556//19 9//12 13//20
f 10//13 557//21 16//22
f 558//23 13//24 17//25
f 13//18 14//26 17//27
f 17//27 14//26 20//28
f 559//29 17//25 20//30
f 16//22 18//31 14//32
f 15//33 19//34 26//35
f 553//36 11//37 24//38
f 11//39 15//33 25//40
f 5//41 553//36 23//42
f 555//43 554//44 27//45
f 12//46 555//43 28//47
f 16//48 12//46 29//49
f 28//50 27//51 31//52
f 29//53 28//50 32//54
f 30//55 29//53 33//56
f 36//57 35//58 37//59
f 30//55 34//60 36//61
f 36//62 20//63 18//64
f 34//60 35//65 36//61
f 63//66 70//67 64//67 58//68
f 70//69 562//70 64//71
f 20//72 36//57 37//59
f 560//73 37//74 39//75
f 30//76 18//76 16//76
f 2//5 6//77 5//6
f 3//8 7//78 8//9
f 556//19 6//10 9//12
f 8//9 557//21 10//13
f 4//15 10//17 9//16
f 10//17 14//26 13//18
f 558//79 556//19 13//20
f 14//32 10//13 16//22
f 559//29 558//23 17//25
f 26//35 19//34 21//80
f 25//40 15//33 26//35
f 23//42 553//36 24//38
f 24//81 11//39 25//40
f 22//82 5//41 23//42
f 28//47 555//43 27//45
f 29//49 12//46 28//47
f 30//83 16//48 29//49
f 32//54 28//50 31//52
f 33//56 29//53 32//54
f 34//60 30//55 33//56
f 37//59 35//58 39//84
f 19//85 562//85 70//85 21//85
f 2//14 1//86 3//87 4//15
f 18//64 30//88 36//62
f 41//89 42//1 43//3
f 44//90 42//91 45//92
f 68//93 44//93 563//93
f 42//94 41//94 564//94 48//94
f 42//91 48//95 45//92
f 45//96 48//96 51//97 565//98
f 48//99 564//99 566//100 51//101
f 565//98 51//97 53//102 52//102
f 53//103 567//103 56//103
f 53//104 51//101 566//100 567//104
f 54//105 53//105 56//105
f 53//106 54//107 58//68 57//106
f 57//108 52//109 53//110
f 58//111 60//112 59//113
f 52//109 57//108 59//114 49//114
f 46//115 563//116 59//117
f 57//118 58//111 59//113
f 60//112 46//119 59//113
f 49//120 59//117 563//116
f 58//68 54//107 62//121 63//66
f 54//122 56//123 61//124 62//122
f 60//112 58//111 64//71 65//125
f 60//112 65//125 46//119
f 46//119 65//125 67//126 66//127
f 46//128 68//129 563//130
f 65//125 64//71 562//70 67//131
f 40//132 569//132 561//132
f 67//131 562//70 570//133
f 38//134 20//135 37//136
f 38//134 37//136 560//137
f 38//138 559//29 20//30
f 570//139 66//127 67//126
f 70//140 63//140 71//140
f 21//141 70//141 71//141
f 63//142 62//142 71//142
f 62//143 61//144 71//145
f 560//73 39//75 72//146
f 69//147 560//147 72//147
f 66//148 570//149 74//150 73//148
f 66//151 73//151 68//129 46//128
f 73//152 74//153 76//154 75//155
f 68//156 73//152 75//155 44//2
f 75//155 43//3 44//2
f 43//3 75//155 76//154
f 22//157 23//158 78//159 77//160
f 78//159 23//158 81//161
f 24//162 25//163 80//164 79//165
f 78//159 81//161 83//166 82//167
f 81//161 79//165 84//168 85//169
f 81//170 85//171 86//172
f 83//173 81//174 86//175
f 86//172 85//171 90//176 571//176
f 90//177 94//178 89//179
f 83//173 86//175 91//180 88//181
f 82//167 83//166 88//182 87//183
f 14//184 18//64 20//63
f 71//185 26//185 21//185
f 26//35 71//186 25//40
f 79//165 80//164 93//187
f 572//188 79//188 93//188
f 79//189 573//189 84//189
f 94//190 84//190 573//190
f 115//191 118//192 127//193 126//191
f 583//194 582//195 125//196 96//194
f 93//197 576//197 574//197
f 99//198 95//198 92//198 575//198
f 97//199 99//199 101//199 100//199
f 100//200 104//201 103//202
f 80//203 105//204 104//205
f 576//206 93//187 80//164
f 80//164 25//163 105//207
f 71//208 105//207 25//163
f 97//209 100//209 103//209
f 71//145 61//144 102//210 106//211
f 104//201 106//212 103//202
f 104//205 105//204 71//213
f 106//214 104//214 71//214
f 97//215 103//216 108//217 107//218
f 103//216 106//211 102//210 108//217
f 568//219 50//219 111//220 577//221
f 50//222 47//222 110//222 111//222
f 47//223 41//223 109//223 110//223
f 56//224 55//224 113//224 114//224
f 102//225 56//225 114//225
f 56//123 102//226 61//124
f 112//227 113//227 55//227
f 108//228 117//228 579//228
f 114//229 113//230 116//230 117//231
f 102//210 114//229 117//231 108//217
f 107//232 108//232 578//232
f 112//233 580//233 116//233 113//233
f 579//234 117//234 116//234 580//234
f 107//235 578//235 120//235 119//235
f 97//215 107//218 119//236 98//237
f 582//195 581//238 124//238 125//196
f 123//239 98//237 119//236
f 120//240 122//240 123//240 119//240
f 94//241 121//242 89//243
f 95//244 99//245 98//237
f 99//245 97//215 98//237
f 572//246 93//246 574//246
f 85//169 84//168 94//178
f 90//177 85//169 94//178
f 94//247 92//247 95//247
f 94//248 95//244 98//237
f 94//248 98//237 123//239
f 121//249 94//249 123//249 122//249
f 581//250 115//251 126//252
f 124//253 581//250 126//252
f 111//254 110//254 128//254 129//254
f 111//220 129//255 577//221
f 109//256 128//257 110//258
f 577//221 129//255 127//193 118//192
f 125//259 124//260 130//261 131//262
f 130//261 124//260 126//263
f 127//264 130//261 126//263
f 128//265 130//261 127//264 129//265
f 23//158 24//162 81//161
f 24//162 79//165 81//161
f 104//266 576//206 80//164
f 583//267 96//267 132//268 584//269
f 121//242 133//270 89//243
f 584//269 132//268 134//271
f 89//243 133//270 134//272
f 125//259 131//262 134//273
f 96//274 125//259 132//275
f 125//259 134//273 132//275
f 88//181 91//180 137//276 135//276
f 571//277 90//277 136//277 585//277
f 136//278 90//177 89//179 134//278
f 87//183 88//182 139//279 138//280
f 135//281 139//279 88//182
f 87//282 138//283 587//283 586//284
f 82//285 87//282 586//284 140//286
f 82//285 140//286 78//287
f 138//280 139//279 146//288 145//289
f 587//290 138//290 145//290 147//290
f 135//291 137//291 588//292 143//293
f 139//294 135//294 143//295 146//288
f 131//296 130//296 148//296 149//296
f 134//297 131//298 149//298 150//299
f 136//300 134//297 150//299 151//301
f 130//302 128//257 109//256 148//302
f 144//303 585//303 152//303
f 585//304 136//304 152//304
f 151//301 152//305 136//300
f 144//306 152//306 153//306
f 145//289 146//288 155//307 154//308
f 146//288 143//295 155//307
f 143//293 588//292 155//309
f 152//305 151//301 153//310
f 109//311 41//89 156//312
f 153//313 151//314 161//315 163//316
f 148//317 109//311 156//312 159//318
f 141//319 142//319 160//319 157//319
f 156//312 41//89 43//3
f 140//320 141//321 157//321 162//322
f 144//323 153//323 163//324 589//324
f 150//325 149//326 159//318 161//315
f 149//326 148//317 159//318
f 151//314 150//325 161//315
f 147//327 164//328 170//329
f 162//322 78//330 140//320
f 145//331 164//331 147//331
f 169//332 171//333 167//334
f 164//335 145//289 154//308 166//336
f 169//332 77//160 78//159 162//337
f 169//332 162//337 171//333
f 142//338 147//327 170//329
f 160//339 142//339 170//339
f 170//340 168//341 157//342 160//343
f 168//341 170//340 164//344 165//345
f 171//333 168//341 165//345
f 171//333 165//345 177//346
f 162//337 157//342 171//333
f 157//342 168//341 171//333
f 169//347 167//347 590//347 173//347
f 173//348 77//348 169//348
f 173//349 172//349 188//349 189//349
f 165//345 164//344 174//350
f 164//335 166//336 176//351 174//352
f 175//353 165//354 174//355
f 167//334 171//333 177//346
f 175//353 592//356 165//354
f 592//357 177//357 165//357
f 179//358 177//358 178//358
f 175//359 179//360 178//361
f 177//362 179//362 181//363 180//364
f 175//359 181//365 179//360
f 177//366 180//364 183//367 593//366
f 182//368 183//368 185//368 184//368
f 184//369 185//370 187//371 186//372
f 184//373 186//373 591//373 182//373
f 167//374 177//374 593//374 590//374
f 77//375 173//375 189//375
f 188//376 172//376 190//376 192//376
f 77//160 189//377 191//378
f 591//379 186//380 190//381
f 77//160 191//378 22//157
f 22//82 191//382 5//41
f 189//377 188//383 191//378
f 188//383 192//384 191//378
f 193//385 192//385 190//385
f 186//380 193//386 190//381
f 5//387 191//387 1//387
f 187//371 193//388 186//372
f 27//45 554//44 594//389 197//390
f 187//371 194//391 201//392
f 7//78 3//8 195//393 196//393
f 196//394 195//394 198//395 199//396
f 197//390 594//389 595//397 200//398
f 1//86 198//399 195//400 3//87
f 1//86 191//378 192//384 198//399
f 201//401 199//396 198//395
f 595//397 201//402 200//398
f 201//392 198//399 192//384
f 192//384 193//388 201//392
f 193//388 187//371 201//392
f 200//403 201//392 194//391
f 35//404 34//60 205//405 206//404
f 32//406 31//407 202//408 203//409
f 39//410 35//411 206//411 207//412
f 34//60 33//56 204//413 205//405
f 69//414 72//415 207//416
f 33//56 32//406 203//409 204//413
f 72//417 39//410 207//412
f 202//408 31//407 208//418 209//418
f 208//419 31//419 210//419 596//419
f 212//420 210//420 31//420
f 27//51 212//421 31//52
f 212//422 213//422 210//422
f 197//423 213//424 212//421 27//51
f 214//425 211//426 213//427
f 213//427 211//426 210//428
f 200//403 194//391 213//424
f 197//423 200//403 213//424
f 187//371 185//370 215//429 216//430
f 194//391 214//431 213//424
f 183//432 215//432 185//432
f 180//364 215//433 183//367
f 215//433 180//364 181//363
f 175//359 215//434 181//365
f 215//435 175//353 174//355
f 218//436 215//436 174//352 176//351
f 215//429 220//437 232//438
f 215//439 218//439 219//439
f 215//440 597//440 220//440
f 187//441 216//442 221//443 217//441
f 217//444 221//444 224//444 598//444
f 194//445 187//445 222//445
f 217//446 598//446 222//446
f 187//447 217//447 222//447
f 227//448 222//448 599//448
f 214//431 194//391 227//449 226//449
f 194//450 222//450 227//450
f 227//451 599//451 226//451
f 223//452 224//452 228//452 225//452
f 225//453 226//453 223//453
f 209//454 208//454 230//454
f 208//455 596//455 230//455
f 214//456 226//457 230//458
f 211//459 214//459 230//459
f 230//458 226//457 229//460
f 231//461 230//458 229//460
f 228//462 229//462 226//462 225//462
f 221//463 228//464 224//465
f 229//466 228//464 221//463
f 216//430 215//429 232//438
f 229//460 233//467 234//468
f 229//469 216//430 232//438 233//469
f 216//442 229//470 221//443
f 231//461 229//460 234//468
f 231//471 234//472 237//472 236//473
f 233//474 232//475 241//476 242//477
f 230//478 231//471 236//473 209//478
f 232//475 220//479 240//480 241//476
f 154//481 155//482 238//482 235//483
f 166//484 154//481 235//483 239//485
f 588//486 158//487 238//488
f 155//489 588//489 238//489
f 206//490 205//491 601//492
f 238//488 158//487 235//493
f 163//324 235//494 589//324
f 235//495 163//316 161//315
f 597//496 240//480 220//479
f 176//497 166//484 239//485
f 234//498 233//474 242//477 243//499
f 237//500 234//498 243//499 244//501
f 218//502 240//480 219//503
f 218//502 176//497 239//485 240//480
f 204//504 600//504 601//504
f 203//505 604//505 600//505
f 239//485 509//506 240//480
f 244//501 243//499 509//506
f 243//499 242//507 509//506
f 241//476 240//480 509//506
f 242//507 241//476 509//506
f 202//408 604//508 203//409
f 206//509 245//509 207//509
f 245//510 69//414 207//416
f 69//414 245//510 601//511
f 161//512 159//512 521//512 522//512
f 235//513 161//514 522//514 523//515
f 159//516 156//516 520//516 521//516
f 43//517 76//518 519//518 518//519
f 239//520 235//513 523//515 524//520
f 156//521 43//517 518//519 520//521
f 76//154 74//153 602//522
f 519//523 76//523 602//523
f 509//524 239//524 524//524
f 209//525 236//525 250//525 249//525
f 603//526 246//526 252//526 529//526
f 236//527 237//527 251//527 250//527
f 209//528 249//529 254//530
f 202//531 248//532 255//533
f 247//534 253//535 256//536
f 246//537 247//537 256//537 252//537
f 254//530 249//529 258//538 263//538
f 250//539 251//539 260//539 259//539
f 255//540 248//540 257//540 264//540
f 249//541 250//541 259//541 258//541
f 256//536 253//535 262//542 265//542
f 529//543 252//543 261//544 539//545
f 252//546 256//546 265//546 261//546
f 253//547 255//548 264//549 262//549
f 248//550 254//550 263//550 257//550
f 260//551 251//551 546//551 547//551
f 509//506 546//552 244//501
f 251//553 237//553 244//553 546//553
f 202//554 209//555 254//556
f 248//557 202//554 254//556
f 253//547 247//558 255//548
f 247//559 202//531 255//533
f 539//545 261//544 267//560 548//560
f 261//561 265//561 268//561 267//561
f 265//562 266//563 547//564
f 265//562 262//565 266//563
f 258//566 259//567 266//563
f 260//568 547//564 266//563
f 262//565 264//569 266//563
f 263//570 258//566 266//563
f 257//571 263//570 266//563
f 264//569 257//571 266//563
f 259//567 260//568 266//563
f 268//572 265//572 551//572 552//572
f 551//573 265//574 547//573
f 204//575 203//575 600//575
f 205//491 204//576 601//492
f 245//577 206//577 601//577
f 74//150 570//149 602//578
f 310//579 311//580 312//581
f 269//582 273//583 270//584
f 272//585 276//586 271//587
f 274//588 277//589 270//590
f 272//585 278//591 276//586
f 270//592 277//593 272//594
f 277//593 281//595 278//596
f 608//597 281//598 277//589
f 278//591 284//599 609//600
f 610//601 285//602 281//603
f 281//595 285//604 282//605
f 285//604 288//606 282//605
f 611//607 288//608 285//602
f 284//599 282//609 286//610
f 283//611 294//612 287//613
f 605//614 292//615 279//616
f 279//617 293//618 283//611
f 273//619 291//620 605//614
f 607//621 295//622 606//623
f 280//624 296//625 607//621
f 284//626 297//627 280//624
f 296//628 299//629 295//630
f 297//631 300//632 296//628
f 298//633 301//634 297//631
f 304//635 305//636 303//637
f 298//633 304//638 302//639
f 304//640 286//641 288//642
f 302//639 304//638 303//643
f 331//644 326//645 332//646 338//646
f 338//647 332//648 614//649
f 288//650 305//636 304//635
f 612//651 307//652 305//653
f 298//654 284//654 286//654
f 270//584 273//583 274//655
f 271//587 276//586 275//656
f 608//597 277//589 274//588
f 276//586 278//591 609//600
f 272//594 277//593 278//596
f 278//596 281//595 282//605
f 610//657 281//598 608//597
f 282//609 284//599 278//591
f 611//607 285//602 610//601
f 294//612 289//658 287//613
f 293//618 294//612 283//611
f 291//620 292//615 605//614
f 292//659 293//618 279//617
f 290//660 291//620 273//619
f 296//625 295//622 607//621
f 297//627 296//625 280//624
f 298//661 297//627 284//626
f 300//632 299//629 296//628
f 301//634 300//632 297//631
f 302//639 301//634 298//633
f 305//636 307//662 303//637
f 287//663 289//663 338//663 614//663
f 270//592 272//594 271//664 269//665
f 286//641 304//640 298//666
f 309//667 311//580 310//579
f 312//668 313//669 310//670
f 336//671 615//671 312//671
f 310//672 316//672 616//672 309//672
f 310//670 313//669 316//673
f 313//674 617//675 319//676 316//674
f 316//677 319//678 618//679 616//677
f 617//675 320//680 321//680 319//676
f 321//681 324//681 619//681
f 321//682 619//682 618//679 319//678
f 322//683 324//683 321//683
f 321//684 325//684 326//645 322//685
f 325//686 321//687 320//688
f 326//689 327//690 328//691
f 320//688 317//692 327//692 325//686
f 314//693 327//694 615//695
f 325//696 327//690 326//689
f 328//691 327//690 314//697
f 317//698 615//695 327//694
f 326//645 331//644 330//699 322//685
f 322//700 330//700 329//701 324//702
f 328//691 333//703 332//648 326//689
f 328//691 314//697 333//703
f 314//697 334//704 335//705 333//703
f 314//706 615//707 336//708
f 333//703 335//709 614//649 332//648
f 308//710 613//710 621//710
f 335//709 622//711 614//649
f 306//712 305//713 288//714
f 306//712 612//715 305//713
f 306//716 288//608 611//607
f 622//717 335//705 334//704
f 338//718 339//718 331//718
f 289//719 339//719 338//719
f 331//720 339//720 330//720
f 330//721 339//722 329//723
f 612//651 340//724 307//652
f 337//725 340//725 612//725
f 334//726 341//726 342//727 622//728
f 334//729 314//706 336//708 341//729
f 341//730 343//731 344//732 342//733
f 336//734 312//581 343//731 341//730
f 343//731 312//581 311//580
f 311//580 344//732 343//731
f 290//735 345//736 346//737 291//738
f 346//737 349//739 291//738
f 292//740 347//741 348//742 293//743
f 346//737 350//744 351//745 349//739
f 349//739 353//746 352//747 347//741
f 349//748 354//749 353//750
f 351//751 354//752 349//753
f 354//749 623//754 358//754 353//750
f 358//755 357//756 362//757
f 351//751 356//758 359//759 354//752
f 350//744 355//760 356//761 351//745
f 282//762 288//642 286//641
f 339//763 289//763 294//763
f 294//612 293//618 339//764
f 347//741 361//765 348//742
f 624//766 361//766 347//766
f 347//767 352//767 625//767
f 362//768 625//768 352//768
f 383//769 394//769 395//770 386//771
f 635//772 364//772 393//773 634//774
f 361//775 626//775 628//775
f 367//776 627//776 360//776 363//776
f 365//777 368//777 369//777 367//777
f 368//778 371//779 372//780
f 348//781 372//782 373//783
f 628//784 348//742 361//765
f 348//742 373//785 293//743
f 339//786 293//743 373//785
f 365//787 371//787 368//787
f 339//722 374//788 370//789 329//723
f 372//780 371//779 374//790
f 372//782 339//791 373//783
f 374//792 339//792 372//792
f 365//793 375//794 376//795 371//796
f 371//796 376//795 370//789 374//788
f 620//797 629//798 379//799 318//797
f 318//800 379//800 378//800 315//800
f 315//801 378//801 377//801 309//801
f 324//802 382//802 381//802 323//802
f 370//803 382//803 324//803
f 324//702 329//701 370//804
f 380//805 323//805 381//805
f 376//806 631//806 385//806
f 382//807 385//808 384//809 381//809
f 370//789 376//795 385//808 382//807
f 375//810 630//810 376//810
f 380//811 381//811 384//811 632//811
f 631//812 632//812 384//812 385//812
f 375//813 387//813 388//813 630//813
f 365//793 366//814 387//815 375//794
f 634//774 393//773 392//816 633//816
f 391//817 387//815 366//814
f 388//818 387//818 391//818 390//818
f 362//819 357//820 389//821
f 363//822 366//814 367//823
f 367//823 366//814 365//793
f 624//824 626//824 361//824
f 353//746 362//757 352//747
f 358//755 362//757 353//746
f 362//825 363//825 360//825
f 362//826 366//814 363//822
f 362//826 391//817 366//814
f 389//827 390//827 391//827 362//827
f 633//828 394//829 383//830
f 392//831 394//829 633//828
f 379//832 397//832 396//832 378//832
f 379//799 629//798 397//833
f 377//834 378//835 396//836
f 629//798 386//771 395//770 397//833
f 393//837 399//838 398//839 392//840
f 398//839 394//841 392//840
f 395//842 394//841 398//839
f 396//843 397//843 395//842 398//839
f 291//738 349//739 292//740
f 292//740 349//739 347//741
f 372//844 348//742 628//784
f 635//845 636//846 400//847 364//845
f 389//821 357//820 401//848
f 636//846 402//849 400//847
f 357//820 402//850 401//848
f 393//837 402//851 399//838
f 364//852 400//853 393//837
f 393//837 400//853 402//851
f 356//758 403//854 405//854 359//759
f 623//855 637//855 404//855 358//855
f 404//856 402//856 357//756 358//755
f 355//760 406//857 407//858 356//761
f 403//859 356//761 407//858
f 355//860 638//861 639//862 406//862
f 350//863 408//864 638//861 355//860
f 350//863 346//865 408//864
f 406//857 413//866 414//867 407//858
f 639//868 415//868 413//868 406//868
f 403//869 411//870 640//871 405//869
f 407//872 414//867 411//873 403//872
f 399//874 417//874 416//874 398//874
f 402//875 418//876 417//877 399//877
f 404//878 419//879 418//876 402//875
f 398//880 416//880 377//834 396//836
f 412//881 420//881 637//881
f 637//882 420//882 404//882
f 419//879 404//878 420//883
f 412//884 421//884 420//884
f 413//866 422//885 423//886 414//867
f 414//867 423//886 411//873
f 411//870 423//887 640//871
f 420//883 421//888 419//879
f 377//889 424//890 309//667
f 421//891 431//892 429//893 419//894
f 416//895 427//896 424//890 377//889
f 409//897 425//897 428//897 410//897
f 424//890 311//580 309//667
f 408//898 430//899 425//900 409//900
f 412//901 641//902 431//902 421//901
f 418//903 429//893 427//896 417//904
f 417//904 427//896 416//895
f 419//894 429//893 418//903
f 415//905 438//906 432//907
f 430//899 408//898 346//908
f 413//909 415//909 432//909
f 437//910 435//911 439//912
f 432//913 434//914 422//885 413//866
f 437//910 430//915 346//737 345//736
f 437//910 439//912 430//915
f 410//916 438//906 415//905
f 428//917 438//917 410//917
f 438//918 428//919 425//920 436//921
f 436//921 433//922 432//923 438//918
f 439//912 433//922 436//921
f 439//912 445//924 433//922
f 430//915 439//912 425//920
f 425//920 439//912 436//921
f 437//925 441//925 642//925 435//925
f 441//926 437//926 345//926
f 441//927 457//927 456//927 440//927
f 433//922 442//928 432//923
f 432//913 442//929 444//930 434//914
f 443//931 442//932 433//933
f 435//911 445//924 439//912
f 443//931 433//933 644//934
f 644//935 433//935 445//935
f 447//936 446//936 445//936
f 443//937 446//938 447//939
f 445//940 448//941 449//942 447//940
f 443//937 447//939 449//943
f 445//944 645//944 451//945 448//941
f 450//946 452//946 453//946 451//946
f 452//947 454//948 455//949 453//950
f 452//951 450//951 643//951 454//951
f 435//952 642//952 645//952 445//952
f 345//953 457//953 441//953
f 456//954 460//954 458//954 440//954
f 345//736 459//955 457//956
f 643//957 458//958 454//959
f 345//736 290//735 459//955
f 290//660 273//619 459//960
f 457//956 459//955 456//961
f 456//961 459//955 460//962
f 461//963 458//963 460//963
f 454//959 458//958 461//964
f 273//965 269//965 459//965
f 455//949 454//948 461//966
f 295//622 465//967 646//968 606//623
f 455//949 469//969 462//970
f 275//656 464//971 463//971 271//587
f 464//972 467//973 466//974 463//972
f 465//967 468//975 647//976 646//968
f 269//665 271//664 463//977 466//978
f 269//665 466//978 460//962 459//955
f 469//979 466//974 467//973
f 647//976 468//975 469//980
f 469//969 460//962 466//978
f 460//962 469//969 461//966
f 461//966 469//969 455//949
f 468//981 462//970 469//969
f 303//982 474//982 473//983 302//639
f 300//984 471//985 470//986 299//987
f 307//988 475//989 474//990 303//990
f 302//639 473//983 472//991 301//634
f 337//992 475//993 340//994
f 301//634 472//991 471//985 300//984
f 340//995 475//989 307//988
f 470//986 477//996 476//996 299//987
f 476//997 648//997 478//997 299//997
f 480//998 299//998 478//998
f 295//630 299//629 480//999
f 480//1000 478//1000 481//1000
f 465//1001 295//630 480//999 481//1002
f 482//1003 481//1004 479//1005
f 481//1004 478//1006 479//1005
f 468//981 481//1002 462//970
f 465//1001 481//1002 468//981
f 455//949 484//1007 483//1008 453//950
f 462//970 481//1002 482//1009
f 451//1010 453//1010 483//1010
f 448//941 451//945 483//1011
f 483//1011 449//942 448//941
f 443//937 449//943 483//1012
f 483//1013 442//932 443//931
f 486//1014 444//930 442//929 483//1014
f 483//1008 500//1015 488//1016
f 483//1017 487//1017 486//1017
f 483//1018 488//1018 649//1018
f 455//1019 485//1019 489//1020 484//1021
f 485//1022 650//1022 492//1022 489//1022
f 462//1023 490//1023 455//1023
f 485//1024 490//1024 650//1024
f 455//1025 490//1025 485//1025
f 495//1026 651//1026 490//1026
f 482//1009 494//1027 495//1027 462//970
f 462//1028 495//1028 490//1028
f 495//1029 494//1029 651//1029
f 491//1030 493//1030 496//1030 492//1030
f 493//1031 491//1031 494//1031
f 477//1032 498//1032 476//1032
f 476//1033 498//1033 648//1033
f 482//1034 498//1035 494//1036
f 479//1037 498//1037 482//1037
f 498//1035 497//1038 494//1036
f 499//1039 497//1038 498//1035
f 496//1040 493//1040 494//1040 497//1040
f 489//1041 492//1042 496//1043
f 497//1044 489//1041 496//1043
f 484//1007 500//1015 483//1008
f 497//1038 502//1045 501//1046
f 497//1047 501//1047 500//1015 484//1007
f 484//1021 489//1020 497//1048
f 499//1039 502//1045 497//1038
f 499//1049 504//1050 505//1051 502//1051
f 501//1052 511//1053 510//1054 500//1055
f 498//1056 477//1056 504//1050 499//1049
f 500//1055 510//1054 508//1057 488//1058
f 422//1059 503//1060 506//1061 423//1061
f 434//1062 507//1063 503//1060 422//1059
f 640//1064 506//1065 426//1066
f 423//1067 506//1067 640//1067
f 474//1068 515//1069 473//1070
f 506//1065 503//1071 426//1066
f 431//902 641//902 503//1072
f 503//1073 429//893 431//892
f 649//1074 488//1058 508//1057
f 444//1075 507//1063 434//1062
f 502//1076 512//1077 511//1053 501//1052
f 505//1078 513//1079 512//1077 502//1076
f 486//1080 487//1081 508//1057
f 486//1080 508//1057 507//1063 444//1075
f 472//1082 515//1082 652//1082
f 471//1083 652//1083 653//1083
f 507//1063 508//1057 509//1084
f 513//1079 509//1084 512//1077
f 512//1077 509//1084 511//1085
f 510//1054 509//1084 508//1057
f 511//1085 509//1084 510//1054
f 470//986 471//985 653//1086
f 474//1087 475//1087 514//1087
f 514//1088 475//993 337//992
f 337//992 515//1089 514//1088
f 429//512 522//512 521//512 427//512
f 503//513 523//515 522//514 429//514
f 427//516 521//516 520//516 424//516
f 311//517 518//519 519//518 344//518
f 507//520 524//520 523//515 503//513
f 424//521 520//521 518//519 311//517
f 344//732 602//1090 342//733
f 519//523 602//523 344//523
f 509//524 524//524 507//524
f 477//1091 526//1091 527//1091 504//1091
f 603//1092 529//1092 530//1092 516//1092
f 504//1093 527//1093 528//1093 505//1093
f 477//1094 532//1095 526//1096
f 470//1097 533//1098 525//1099
f 517//1100 534//1101 531//1102
f 516//1103 530//1103 534//1103 517//1103
f 532//1095 542//1104 536//1104 526//1096
f 527//1105 537//1105 538//1105 528//1105
f 533//1106 543//1106 535//1106 525//1106
f 526//1107 536//1107 537//1107 527//1107
f 534//1101 544//1108 541//1108 531//1102
f 529//1109 539//1110 540//1111 530//1109
f 530//1112 540//1112 544//1112 534//1112
f 531//1113 541//1114 543//1114 533//1115
f 525//1116 535//1116 542//1116 532//1116
f 538//1117 547//1117 546//1117 528//1117
f 509//1084 513//1079 546//1118
f 528//1119 546//1119 513//1119 505//1119
f 470//1120 532//1121 477//1122
f 525//1123 532//1121 470//1120
f 531//1113 533//1115 517//1124
f 517//1125 533//1098 470//1097
f 539//1110 548//1126 549//1126 540//1111
f 540//1127 549//1127 550//1127 544//1127
f 544//1128 547//1129 545//1130
f 544//1128 545//1130 541//1131
f 536//1132 545//1130 537//1133
f 538//1134 545//1130 547//1129
f 541//1131 545//1130 543//1135
f 542//1136 545//1130 536//1132
f 535//1137 545//1130 542//1136
f 543//1135 545//1130 535//1137
f 537//1133 545//1130 538//1134
f 550//1138 552//1138 551//1138 544//1138
f 551//573 547//573 544//1139
f 472//1140 652//1140 471//1140
f 473//1070 515//1069 472//1141
f 514//1142 515//1142 474//1142
f 342//727 602//1143 622//728
